<svg xmlns="http://www.w3.org/2000/svg" xmlns:xlink="http://www.w3.org/1999/xlink" width="1080" zoomAndPan="magnify" viewBox="0 0 810 809.999993" height="1080" preserveAspectRatio="xMidYMid meet" version="1.0"><rect x="-81" width="972" fill="#ffffff" y="-80.999999" height="971.999992" fill-opacity="1"/><rect x="-81" width="972" fill="#18422f" y="-80.999999" height="971.999992" fill-opacity="1"/><path fill="#ffffff" d="M 411.351562 482.574219 C 407.285156 482.574219 403.273438 481.941406 399.28125 480.644531 L 214.285156 418.945312 C 210.929688 427.660156 209.253906 438.890625 209.253906 455.28125 C 221.324219 462.269531 233.089844 476.324219 233.089844 500.542969 C 233.089844 515.382812 225.667969 526.054688 219.289062 533.144531 C 246.734375 564.984375 322.257812 587.882812 411.378906 587.882812 C 523.671875 587.882812 614.671875 551.542969 614.671875 506.792969 C 614.671875 496.90625 614.671875 456.527344 614.671875 416.886719 L 423.371094 480.644531 C 419.433594 481.941406 415.417969 482.574219 411.351562 482.574219 Z M 411.351562 482.574219 " fill-opacity="1" fill-rule="nonzero"/><path fill="#ffffff" d="M 720.308594 322.53125 L 415.367188 220.886719 C 412.726562 220.019531 409.957031 220.019531 407.339844 220.886719 L 102.398438 322.53125 C 97.210938 324.261719 93.707031 329.113281 93.707031 334.578125 C 93.707031 340.039062 97.210938 344.894531 102.398438 346.621094 L 172.304688 369.925781 C 156.21875 388.578125 146.867188 414.878906 143.4375 457.671875 C 132.382812 462.882812 124.582031 473.984375 124.582031 487.046875 C 124.582031 500.339844 132.558594 511.644531 143.945312 516.753906 C 134.007812 603.28125 82.195312 632.125 82.195312 639.519531 C 82.195312 643.277344 122.320312 664.929688 131.847656 664.929688 C 146.585938 664.929688 181.960938 639.925781 181.960938 585.925781 C 181.960938 554.109375 179.089844 530.070312 176.066406 513.019531 C 184.222656 507.097656 189.890625 497.925781 189.890625 487.046875 C 189.890625 475.179688 183.257812 465.269531 173.777344 459.550781 C 179.140625 388.933594 200.96875 377.117188 253.773438 355.210938 C 259.058594 353.128906 269.046875 349.085938 274.816406 346.699219 C 285.183594 342.429688 294.558594 338.617188 303.554688 335.007812 C 332.601562 323.472656 357.148438 314.195312 375.878906 307.308594 C 396.386719 299.992188 405.585938 297.324219 405.914062 297.222656 C 413.765625 294.578125 422.507812 298.824219 425.203125 306.828125 C 427.871094 314.808594 423.601562 323.445312 415.597656 326.140625 C 414.988281 326.34375 379.308594 336.535156 286.480469 374.90625 C 280.507812 377.371094 274.816406 379.605469 269.402344 381.742188 C 258.398438 386.085938 249.277344 389.566406 241.628906 393.074219 L 407.335938 448.292969 C 408.660156 448.703125 409.980469 448.929688 411.351562 448.929688 C 412.726562 448.929688 414.046875 448.703125 415.367188 448.269531 L 720.308594 346.621094 C 725.492188 344.894531 729 340.039062 729 334.578125 C 729 329.113281 725.492188 324.261719 720.308594 322.53125 Z M 720.308594 322.53125 " fill-opacity="1" fill-rule="nonzero"/></svg>