<svg xmlns="http://www.w3.org/2000/svg" xmlns:xlink="http://www.w3.org/1999/xlink" width="1080" zoomAndPan="magnify" viewBox="0 0 810 809.999993" height="1080" preserveAspectRatio="xMidYMid meet" version="1.0"><defs><clipPath id="0070b2be16"><path d="M 84 83.429688 L 604 83.429688 L 604 155 L 84 155 Z M 84 83.429688 " clip-rule="nonzero"/></clipPath><clipPath id="a30d1c9233"><path d="M 443 634 L 728.828125 634 L 728.828125 726.625 L 443 726.625 Z M 443 634 " clip-rule="nonzero"/></clipPath><clipPath id="26c59ffc8a"><path d="M 630.082031 691 L 728.828125 691 L 728.828125 726.625 L 630.082031 726.625 Z M 630.082031 691 " clip-rule="nonzero"/></clipPath></defs><rect x="-81" width="972" fill="#ffffff" y="-80.999999" height="971.999992" fill-opacity="1"/><rect x="-81" width="972" fill="#18422f" y="-80.999999" height="971.999992" fill-opacity="1"/><path fill="#ffffff" d="M 534.851562 291.664062 C 531.03125 285.382812 528.144531 276.074219 527.070312 272.300781 C 519.253906 271.917969 513.386719 271.003906 509.136719 270.019531 C 508.601562 277.917969 509.074219 290.125 515.542969 298.304688 C 515.570312 298.34375 515.597656 298.371094 515.640625 298.414062 C 518.621094 302.136719 522.605469 304.65625 527.695312 306.023438 C 530.449219 306.757812 533.527344 307.164062 536.941406 307.246094 C 540.128906 307.328125 543.574219 307.382812 547.207031 307.410156 C 543.035156 303.148438 538.628906 297.875 534.851562 291.664062 " fill-opacity="1" fill-rule="nonzero"/><path fill="#ffffff" d="M 504.535156 228.097656 C 518.578125 228.097656 530.007812 216.671875 530.007812 202.625 L 530.007812 168.417969 L 466.804688 168.417969 L 466.804688 202.625 C 466.804688 216.671875 478.234375 228.097656 492.273438 228.097656 L 504.535156 228.097656 " fill-opacity="1" fill-rule="nonzero"/><path fill="#ffffff" d="M 526.035156 319.957031 L 526.019531 319.957031 C 523.917969 319.492188 521.898438 318.894531 519.988281 318.160156 C 519.933594 318.324219 519.890625 318.492188 519.847656 318.671875 C 519.191406 321.320312 518.578125 323.992188 518.007812 326.671875 C 515.683594 337.621094 514.039062 348.488281 512.996094 356.316406 C 514.234375 355.679688 515.570312 354.9375 517.003906 354.101562 C 519.121094 352.867188 521.460938 351.402344 523.972656 349.660156 C 536.386719 341.0625 539.28125 334.246094 539.628906 333.316406 L 539.742188 332.648438 L 539.96875 332.351562 C 540.734375 330.53125 541.46875 328.664062 542.15625 326.796875 C 542.835938 324.957031 543.460938 323.117188 544.050781 321.320312 C 541.457031 321.277344 538.976562 321.234375 536.636719 321.179688 C 532.859375 321.097656 529.320312 320.691406 526.035156 319.957031 " fill-opacity="1" fill-rule="nonzero"/><path fill="#ffffff" d="M 427.40625 228.097656 C 441.445312 228.097656 452.871094 216.671875 452.871094 202.625 L 452.871094 168.417969 L 389.671875 168.417969 L 389.671875 202.625 C 389.671875 216.671875 401.097656 228.097656 415.144531 228.097656 L 427.40625 228.097656 " fill-opacity="1" fill-rule="nonzero"/><path fill="#ffffff" d="M 613.460938 520.089844 L 613.460938 495.757812 C 604.40625 498.113281 594.164062 499.269531 582.65625 499.269531 C 572.976562 499.269531 564.109375 498.417969 556.0625 496.707031 L 556.0625 515.835938 L 586.996094 545.253906 L 613.460938 520.089844 " fill-opacity="1" fill-rule="nonzero"/><path fill="#ffffff" d="M 567.414062 306.605469 C 572.171875 306.164062 577.171875 305.933594 582.460938 305.933594 C 583.734375 305.933594 585.015625 305.953125 586.261719 305.980469 C 581.609375 301.667969 576.976562 297.332031 574.738281 295.089844 C 569.3125 289.664062 565.492188 276.941406 564.050781 271.511719 C 558.617188 271.566406 552.828125 271.800781 546.683594 272.148438 C 544.945312 272.246094 543.28125 272.316406 541.660156 272.371094 C 542.945312 276.296875 544.785156 281.1875 546.753906 284.421875 C 553.578125 295.632812 563.097656 303.421875 567.414062 306.605469 " fill-opacity="1" fill-rule="nonzero"/><path fill="#ffffff" d="M 496.328125 399.894531 L 496.328125 368.59375 C 485.960938 370.609375 478.152344 376.964844 478.152344 384.246094 C 478.152344 391.527344 485.960938 397.878906 496.328125 399.894531 " fill-opacity="1" fill-rule="nonzero"/><path fill="#ffffff" d="M 551.445312 530.671875 L 550.652344 533.503906 L 544.761719 554.472656 L 571.832031 550.050781 L 556.0625 535.0625 L 551.445312 530.671875 " fill-opacity="1" fill-rule="nonzero"/><path fill="#ffffff" d="M 597.765625 586.429688 C 597.765625 590.882812 594.152344 594.496094 589.699219 594.496094 C 585.242188 594.496094 581.636719 590.882812 581.636719 586.429688 C 581.636719 581.972656 585.242188 578.363281 589.699219 578.363281 C 594.152344 578.363281 597.765625 581.972656 597.765625 586.429688 Z M 590.386719 638.382812 C 585.933594 638.382812 582.320312 634.769531 582.320312 630.320312 C 582.320312 625.859375 585.933594 622.253906 590.386719 622.253906 C 594.839844 622.253906 598.453125 625.859375 598.453125 630.320312 C 598.453125 634.769531 594.839844 638.382812 590.386719 638.382812 Z M 587 560.367188 C 585.707031 561.421875 584.136719 562.15625 582.40625 562.441406 L 540.496094 569.28125 C 539.96875 569.363281 539.4375 569.421875 538.90625 569.421875 C 536.164062 569.421875 533.546875 568.253906 531.679688 566.164062 C 529.445312 563.664062 528.652344 560.25 529.5625 557.035156 L 538.574219 525 L 482.636719 525 C 463.070312 525 447.160156 540.914062 447.160156 560.476562 L 447.160156 625.414062 C 448.527344 624.316406 450.046875 623.394531 451.664062 622.671875 C 452.050781 622.492188 452.441406 622.339844 452.84375 622.183594 C 457.945312 620.277344 463.605469 620.457031 468.5625 622.671875 C 468.910156 622.824219 469.242188 622.976562 469.589844 623.160156 L 503.671875 640.6875 L 503.671875 622.671875 L 476.492188 622.671875 L 476.492188 608.738281 L 517.605469 608.738281 L 517.605469 647.847656 L 523.578125 650.929688 L 586.054688 655.648438 L 648.527344 650.929688 L 658.921875 645.578125 L 658.921875 608.738281 L 691.585938 608.738281 L 691.585938 622.671875 L 672.855469 622.671875 L 672.855469 638.417969 L 702.519531 623.160156 C 702.867188 622.976562 703.203125 622.824219 703.550781 622.671875 C 708.511719 620.441406 714.171875 620.277344 719.253906 622.183594 C 719.65625 622.339844 720.058594 622.503906 720.449219 622.671875 C 721.761719 623.253906 723.003906 623.96875 724.144531 624.816406 L 724.144531 560.476562 C 724.144531 540.914062 708.214844 525 688.65625 525 L 635.429688 525 L 644.441406 557.039062 C 645.34375 560.257812 644.554688 563.667969 642.324219 566.164062 C 640.457031 568.257812 637.835938 569.410156 635.085938 569.410156 C 634.558594 569.410156 634.03125 569.367188 633.496094 569.285156 L 591.589844 562.441406 C 589.859375 562.15625 588.296875 561.421875 587 560.367188 " fill-opacity="1" fill-rule="nonzero"/><path fill="#ffffff" d="M 688.121094 384.246094 C 688.121094 376.964844 680.316406 370.609375 669.945312 368.59375 L 669.945312 399.894531 C 680.316406 397.878906 688.121094 391.527344 688.121094 384.246094 " fill-opacity="1" fill-rule="nonzero"/><path fill="#ffffff" d="M 350.273438 228.097656 C 364.316406 228.097656 375.738281 216.671875 375.738281 202.625 L 375.738281 168.417969 L 312.542969 168.417969 L 312.542969 202.625 C 312.542969 216.671875 323.964844 228.097656 338.011719 228.097656 L 350.273438 228.097656 " fill-opacity="1" fill-rule="nonzero"/><path fill="#ffffff" d="M 284.230469 508.664062 L 284.230469 541.410156 L 437.054688 541.410156 C 444.53125 523.601562 462.144531 511.066406 482.636719 511.066406 L 542.128906 511.066406 L 542.128906 492.597656 C 513.414062 481.394531 498.335938 456.121094 497.167969 417.039062 C 497.136719 416.070312 497.113281 415.09375 497.089844 414.125 C 478.226562 411.882812 464.21875 399.566406 464.21875 384.246094 C 464.21875 368.351562 479.292969 355.683594 499.21875 354.15625 C 500.558594 344.09375 502.859375 329.332031 506.320312 315.328125 C 506.734375 313.667969 507.253906 312.070312 507.867188 310.535156 C 506.695312 309.40625 505.609375 308.195312 504.582031 306.898438 C 490.308594 288.800781 496.230469 260.492188 496.480469 259.292969 L 498.660156 249.273438 L 506.796875 254.730469 C 507.808594 255.222656 518.257812 259.792969 545.898438 258.230469 C 557.378906 257.585938 567.746094 257.34375 577.121094 257.8125 L 577.121094 242.03125 L 569.40625 242.03125 C 555.972656 242.03125 544.09375 235.269531 536.972656 224.972656 C 529.867188 235.269531 517.980469 242.03125 504.535156 242.03125 L 492.273438 242.03125 C 478.84375 242.03125 466.960938 235.269531 459.835938 224.972656 C 452.734375 235.269531 440.847656 242.03125 427.40625 242.03125 L 415.144531 242.03125 C 401.710938 242.03125 389.824219 235.269531 382.707031 224.972656 C 375.585938 235.269531 363.703125 242.03125 350.273438 242.03125 L 338.011719 242.03125 C 324.5625 242.03125 312.683594 235.269531 305.574219 224.972656 C 298.457031 235.269531 286.570312 242.03125 273.136719 242.03125 L 260.867188 242.03125 C 247.433594 242.03125 235.546875 235.269531 228.429688 224.972656 C 221.324219 235.269531 209.4375 242.03125 196.007812 242.03125 L 183.734375 242.03125 C 170.300781 242.03125 158.417969 235.269531 151.296875 224.972656 C 144.195312 235.269531 132.308594 242.03125 118.867188 242.03125 L 110.40625 242.03125 L 110.40625 541.410156 L 136.589844 541.410156 L 136.589844 260.234375 L 480.082031 260.234375 L 480.082031 274.167969 L 284.230469 274.167969 L 284.230469 494.730469 L 510.914062 494.730469 L 510.914062 508.664062 L 284.230469 508.664062 " fill-opacity="1" fill-rule="nonzero"/><path fill="#ffffff" d="M 273.136719 228.097656 C 287.183594 228.097656 298.609375 216.671875 298.609375 202.625 L 298.609375 168.417969 L 235.394531 168.417969 L 235.394531 202.625 C 235.394531 216.671875 246.824219 228.097656 260.867188 228.097656 L 273.136719 228.097656 " fill-opacity="1" fill-rule="nonzero"/><path fill="#ffffff" d="M 196.007812 228.097656 C 210.039062 228.097656 221.460938 216.671875 221.460938 202.625 L 221.460938 168.417969 L 158.265625 168.417969 L 158.265625 202.625 C 158.265625 216.671875 169.6875 228.097656 183.734375 228.097656 L 196.007812 228.097656 " fill-opacity="1" fill-rule="nonzero"/><path fill="#ffffff" d="M 234.566406 392.28125 C 235.230469 386.429688 239.992188 381.671875 245.851562 381.023438 C 253.59375 380.171875 260.148438 386.210938 260.148438 393.78125 C 260.148438 398.300781 257.8125 402.261719 254.28125 404.554688 L 254.28125 430.101562 C 254.28125 432.605469 252.253906 434.628906 249.75 434.628906 L 244.875 434.628906 C 242.378906 434.628906 240.347656 432.605469 240.347656 430.101562 L 240.347656 404.554688 C 236.433594 402.011719 233.984375 397.414062 234.566406 392.28125 Z M 270.296875 541.410156 L 270.296875 274.167969 L 150.523438 274.167969 L 150.523438 541.410156 L 270.296875 541.410156 " fill-opacity="1" fill-rule="nonzero"/><g clip-path="url(#0070b2be16)"><path fill="#ffffff" d="M 574.621094 83.429688 L 109.25 83.429688 L 84.035156 154.488281 L 603.738281 154.488281 L 574.621094 83.429688 " fill-opacity="1" fill-rule="nonzero"/></g><path fill="#ffffff" d="M 433.230469 560.476562 C 433.230469 558.746094 433.316406 557.035156 433.496094 555.347656 L 96.476562 555.347656 L 96.476562 555.34375 L 81.132812 555.34375 L 81.132812 588.601562 L 433.230469 588.601562 L 433.230469 560.476562 " fill-opacity="1" fill-rule="nonzero"/><path fill="#ffffff" d="M 106.605469 228.097656 L 118.867188 228.097656 C 132.90625 228.097656 144.332031 216.671875 144.332031 202.625 L 144.332031 168.417969 L 81.132812 168.417969 L 81.132812 202.625 C 81.132812 213.074219 87.457031 222.078125 96.476562 225.992188 C 99.578125 227.339844 103.007812 228.097656 106.605469 228.097656 " fill-opacity="1" fill-rule="nonzero"/><path fill="#ffffff" d="M 543.941406 202.625 C 543.941406 216.671875 555.363281 228.097656 569.40625 228.097656 L 581.683594 228.097656 C 585 228.097656 588.160156 227.453125 591.054688 226.296875 C 600.476562 222.5625 607.148438 213.351562 607.148438 202.625 L 607.148438 168.417969 L 543.941406 168.417969 L 543.941406 202.625 " fill-opacity="1" fill-rule="nonzero"/><path fill="#ffffff" d="M 447.160156 668.882812 C 451.074219 666.835938 455.394531 665.570312 459.882812 665.210938 L 459.90625 665.210938 L 503.671875 661.890625 L 513.046875 661.183594 L 503.671875 656.359375 L 463.210938 635.542969 C 461.496094 634.667969 459.550781 634.558594 457.738281 635.226562 C 455.925781 635.90625 454.53125 637.273438 453.808594 639.070312 L 447.160156 655.761719 L 444.125 663.382812 C 443.144531 665.835938 443.019531 668.453125 443.714844 670.945312 C 444.820312 670.195312 445.976562 669.5 447.160156 668.882812 " fill-opacity="1" fill-rule="nonzero"/><g clip-path="url(#a30d1c9233)"><path fill="#ffffff" d="M 668.050781 694.648438 L 672.855469 693.210938 L 672.855469 692.320312 L 675.882812 692.320312 L 716.394531 680.269531 L 720.351562 679.097656 C 721.746094 678.679688 723.03125 678.039062 724.144531 677.179688 C 725.605469 676.089844 726.792969 674.640625 727.628906 672.925781 C 727.933594 672.285156 728.183594 671.617188 728.378906 670.945312 C 729.089844 668.46875 728.953125 665.835938 727.976562 663.382812 L 724.144531 653.769531 L 718.289062 639.070312 C 717.566406 637.273438 716.171875 635.90625 714.359375 635.226562 C 712.554688 634.542969 710.617188 634.667969 708.886719 635.542969 L 672.855469 654.074219 L 659.046875 661.183594 L 658.921875 661.253906 L 652.394531 664.613281 L 586.054688 669.625 L 517.605469 674.804688 L 503.671875 675.867188 L 460.980469 679.097656 C 459.140625 679.25 457.371094 679.644531 455.699219 680.269531 C 454.90625 680.574219 454.128906 680.921875 453.378906 681.339844 C 451.003906 682.609375 448.914062 684.394531 447.214844 686.621094 C 446.117188 688.074219 445.234375 689.648438 444.597656 691.273438 C 444.082031 692.570312 443.714844 693.910156 443.511719 695.273438 C 443.179688 697.433594 443.207031 699.660156 443.636719 701.910156 L 445.394531 711.019531 C 447.386719 721.34375 457.039062 728.058594 467.417969 726.355469 L 505.402344 720.355469 L 541.441406 714.65625 L 586.054688 707.605469 L 593.554688 706.421875 L 658.921875 696.097656 L 668.050781 694.648438 " fill-opacity="1" fill-rule="nonzero"/></g><g clip-path="url(#26c59ffc8a)"><path fill="#ffffff" d="M 724.324219 692.460938 L 677.902344 706.253906 L 672.855469 707.742188 L 671.140625 708.261719 L 630.671875 714.65625 L 666.726562 720.355469 L 704.625 726.347656 C 715.058594 728.070312 724.730469 721.34375 726.710938 711.019531 L 727.628906 706.253906 L 728.460938 701.910156 C 729.175781 698.257812 728.835938 694.605469 727.515625 691.261719 C 726.488281 691.738281 725.425781 692.140625 724.324219 692.460938 " fill-opacity="1" fill-rule="nonzero"/></g><path fill="#ffffff" d="M 618.519531 534.78125 L 616.136719 536.777344 L 616.125 536.785156 L 602.167969 550.050781 L 629.246094 554.472656 L 622.71875 531.277344 L 618.519531 534.78125 " fill-opacity="1" fill-rule="nonzero"/><path fill="#ffffff" d="M 631.351562 314.394531 L 631.003906 319.296875 L 631.003906 319.3125 C 631.226562 320.179688 631.867188 322.117188 633.496094 324.929688 C 633.691406 325.261719 633.898438 325.609375 634.136719 325.984375 C 634.335938 326.304688 634.558594 326.65625 634.78125 327.003906 C 635.601562 328.21875 636.578125 329.566406 637.746094 331.003906 C 637.914062 331.210938 638.09375 331.433594 638.265625 331.644531 C 640.128906 333.871094 642.453125 336.351562 645.367188 339.027344 C 650.527344 343.765625 654.996094 346.625 658.378906 348.335938 C 658.503906 345.800781 658.644531 342.792969 658.742188 339.445312 C 659.011719 330.433594 659.046875 318.9375 658.242188 307.359375 C 657.449219 295.992188 648.464844 287.8125 640.992188 284.257812 C 635.140625 281.472656 630.503906 281.5 628.550781 282.722656 C 632.316406 294.039062 631.742188 308.878906 631.351562 314.394531 " fill-opacity="1" fill-rule="nonzero"/><path fill="#ffffff" d="M 584.589844 285.238281 C 589.125 289.769531 604.804688 304.121094 608.152344 307.175781 C 610.441406 307.148438 612.542969 307.121094 614.425781 307.09375 C 615.597656 307.078125 616.679688 307.066406 617.667969 307.050781 C 617.667969 297.574219 616.359375 287.671875 613.910156 283.730469 C 613.605469 283.203125 613.253906 282.78125 612.890625 282.488281 C 604.742188 275.757812 593.359375 272.734375 578.628906 271.800781 C 580.464844 277.699219 582.859375 283.507812 584.589844 285.238281 " fill-opacity="1" fill-rule="nonzero"/><path fill="#ffffff" d="M 620.421875 373.832031 C 626.285156 373.832031 631.042969 378.582031 631.042969 384.441406 C 631.042969 390.304688 626.285156 395.054688 620.421875 395.054688 C 614.5625 395.054688 609.8125 390.304688 609.8125 384.441406 C 609.8125 378.582031 614.5625 373.832031 620.421875 373.832031 Z M 607.675781 449.773438 C 600.734375 454.238281 591.964844 456.691406 582.972656 456.691406 C 573.960938 456.691406 565.164062 454.222656 558.210938 449.738281 C 554.976562 447.648438 554.050781 443.335938 556.132812 440.101562 C 558.222656 436.875 562.53125 435.945312 565.765625 438.023438 C 570.492188 441.078125 576.605469 442.757812 582.972656 442.757812 C 589.324219 442.757812 595.421875 441.089844 600.148438 438.050781 C 603.386719 435.972656 607.699219 436.914062 609.773438 440.148438 C 611.851562 443.390625 610.914062 447.695312 607.675781 449.773438 Z M 543.960938 395.054688 C 538.101562 395.054688 533.34375 390.304688 533.34375 384.441406 C 533.34375 378.582031 538.101562 373.832031 543.960938 373.832031 C 549.824219 373.832031 554.574219 378.582031 554.574219 384.441406 C 554.574219 390.304688 549.824219 395.054688 543.960938 395.054688 Z M 603.039062 321.179688 L 603.023438 321.179688 C 591.894531 321.304688 577.851562 321.429688 564.332031 321.429688 L 560.992188 321.429688 C 560.976562 321.429688 560.976562 321.429688 560.964844 321.429688 C 560.152344 321.554688 559.359375 321.695312 558.582031 321.847656 C 556.894531 327.53125 554.804688 332.980469 552.964844 337.382812 C 552.015625 340.433594 547.933594 350.019531 531.902344 361.109375 C 523.75 366.753906 517.15625 370 512.671875 371.8125 C 510.804688 384.421875 510.582031 399.34375 511.101562 416.621094 C 512.003906 447.269531 522.035156 467.207031 542.128906 477.339844 C 546.320312 479.46875 550.960938 481.15625 556.0625 482.425781 C 563.859375 484.371094 572.710938 485.335938 582.65625 485.335938 C 594.472656 485.335938 604.710938 484.011719 613.460938 481.28125 C 618.617188 479.691406 623.257812 477.589844 627.394531 474.984375 C 644.382812 464.355469 652.929688 445.234375 654.214844 416.511719 L 654.339844 413.734375 C 655.179688 395.359375 656.027344 376.578125 652.167969 360.816406 C 647.640625 358.546875 642.09375 354.957031 635.933594 349.285156 C 624.054688 338.34375 619.617188 329.554688 617.972656 324.441406 C 617.488281 322.964844 617.25 321.792969 617.125 320.984375 C 613.460938 321.039062 608.628906 321.109375 603.039062 321.179688 " fill-opacity="1" fill-rule="nonzero"/></svg>