<svg xmlns="http://www.w3.org/2000/svg" xmlns:xlink="http://www.w3.org/1999/xlink" width="1080" zoomAndPan="magnify" viewBox="0 0 810 809.999993" height="1080" preserveAspectRatio="xMidYMid meet" version="1.0"><defs><clipPath id="9c1922a832"><path d="M 378 93.359375 L 430 93.359375 L 430 145 L 378 145 Z M 378 93.359375 " clip-rule="nonzero"/></clipPath></defs><rect x="-81" width="972" fill="#ffffff" y="-80.999999" height="971.999992" fill-opacity="1"/><rect x="-81" width="972" fill="#18422f" y="-80.999999" height="971.999992" fill-opacity="1"/><g clip-path="url(#9c1922a832)"><path fill="#ffffff" d="M 429.386719 119.003906 C 429.386719 119.84375 429.34375 120.683594 429.261719 121.519531 C 429.179688 122.351562 429.058594 123.183594 428.894531 124.007812 C 428.730469 124.832031 428.527344 125.644531 428.28125 126.449219 C 428.039062 127.25 427.753906 128.042969 427.433594 128.816406 C 427.113281 129.59375 426.753906 130.351562 426.359375 131.09375 C 425.960938 131.832031 425.53125 132.554688 425.0625 133.25 C 424.597656 133.949219 424.097656 134.625 423.566406 135.273438 C 423.03125 135.921875 422.46875 136.542969 421.875 137.136719 C 421.28125 137.730469 420.660156 138.292969 420.011719 138.828125 C 419.359375 139.359375 418.6875 139.859375 417.988281 140.328125 C 417.289062 140.792969 416.570312 141.222656 415.832031 141.621094 C 415.089844 142.015625 414.332031 142.375 413.554688 142.695312 C 412.78125 143.015625 411.988281 143.300781 411.1875 143.542969 C 410.382812 143.789062 409.570312 143.992188 408.746094 144.15625 C 407.921875 144.320312 407.089844 144.441406 406.253906 144.523438 C 405.417969 144.605469 404.582031 144.648438 403.742188 144.648438 C 402.902344 144.648438 402.0625 144.605469 401.226562 144.523438 C 400.394531 144.441406 399.5625 144.320312 398.738281 144.15625 C 397.914062 143.992188 397.101562 143.789062 396.296875 143.542969 C 395.496094 143.300781 394.703125 143.015625 393.929688 142.695312 C 393.152344 142.375 392.394531 142.015625 391.652344 141.621094 C 390.914062 141.222656 390.191406 140.792969 389.496094 140.328125 C 388.796875 139.859375 388.121094 139.359375 387.472656 138.828125 C 386.824219 138.292969 386.203125 137.730469 385.609375 137.136719 C 385.015625 136.542969 384.453125 135.921875 383.917969 135.273438 C 383.386719 134.625 382.886719 133.949219 382.417969 133.25 C 381.953125 132.554688 381.523438 131.832031 381.125 131.09375 C 380.730469 130.351562 380.371094 129.59375 380.050781 128.816406 C 379.730469 128.042969 379.445312 127.25 379.203125 126.449219 C 378.957031 125.644531 378.753906 124.832031 378.589844 124.007812 C 378.425781 123.183594 378.304688 122.351562 378.222656 121.519531 C 378.140625 120.683594 378.097656 119.84375 378.097656 119.003906 C 378.097656 118.164062 378.140625 117.328125 378.222656 116.492188 C 378.304688 115.65625 378.425781 114.824219 378.589844 114 C 378.753906 113.175781 378.957031 112.363281 379.203125 111.558594 C 379.445312 110.757812 379.730469 109.964844 380.050781 109.191406 C 380.371094 108.414062 380.730469 107.65625 381.125 106.914062 C 381.523438 106.175781 381.953125 105.457031 382.417969 104.757812 C 382.886719 104.058594 383.386719 103.386719 383.917969 102.734375 C 384.453125 102.085938 385.015625 101.464844 385.609375 100.871094 C 386.203125 100.277344 386.824219 99.714844 387.472656 99.179688 C 388.121094 98.648438 388.796875 98.148438 389.496094 97.683594 C 390.191406 97.214844 390.914062 96.785156 391.652344 96.386719 C 392.394531 95.992188 393.152344 95.632812 393.929688 95.3125 C 394.703125 94.992188 395.496094 94.707031 396.296875 94.464844 C 397.101562 94.21875 397.914062 94.015625 398.738281 93.851562 C 399.5625 93.6875 400.394531 93.566406 401.226562 93.484375 C 402.0625 93.402344 402.902344 93.359375 403.742188 93.359375 C 404.582031 93.359375 405.417969 93.402344 406.253906 93.484375 C 407.089844 93.566406 407.921875 93.6875 408.746094 93.851562 C 409.570312 94.015625 410.382812 94.21875 411.1875 94.464844 C 411.988281 94.707031 412.78125 94.992188 413.554688 95.3125 C 414.332031 95.632812 415.089844 95.992188 415.832031 96.386719 C 416.570312 96.785156 417.289062 97.214844 417.988281 97.683594 C 418.6875 98.148438 419.359375 98.648438 420.011719 99.179688 C 420.660156 99.714844 421.28125 100.277344 421.875 100.871094 C 422.46875 101.464844 423.03125 102.085938 423.566406 102.734375 C 424.097656 103.386719 424.597656 104.058594 425.0625 104.757812 C 425.53125 105.457031 425.960938 106.175781 426.359375 106.914062 C 426.753906 107.65625 427.113281 108.414062 427.433594 109.191406 C 427.753906 109.964844 428.039062 110.757812 428.28125 111.558594 C 428.527344 112.363281 428.730469 113.175781 428.894531 114 C 429.058594 114.824219 429.179688 115.65625 429.261719 116.492188 C 429.34375 117.328125 429.386719 118.164062 429.386719 119.003906 Z M 429.386719 119.003906 " fill-opacity="1" fill-rule="nonzero"/></g><path fill="#ffffff" d="M 232.140625 172.472656 C 232.679688 173.117188 233.1875 173.785156 233.664062 174.480469 C 234.136719 175.171875 234.574219 175.886719 234.980469 176.625 C 235.382812 177.359375 235.75 178.113281 236.082031 178.886719 C 236.410156 179.660156 236.703125 180.445312 236.953125 181.246094 C 237.207031 182.046875 237.417969 182.859375 237.59375 183.683594 C 237.765625 184.503906 237.898438 185.332031 237.988281 186.167969 C 238.082031 187 238.128906 187.839844 238.140625 188.679688 C 238.148438 189.519531 238.117188 190.355469 238.042969 191.195312 C 237.96875 192.03125 237.855469 192.863281 237.703125 193.6875 C 237.546875 194.511719 237.351562 195.328125 237.117188 196.136719 C 236.882812 196.941406 236.609375 197.734375 236.292969 198.511719 C 235.980469 199.292969 235.632812 200.054688 235.242188 200.800781 C 234.855469 201.546875 234.433594 202.269531 233.972656 202.972656 C 233.515625 203.675781 233.023438 204.355469 232.496094 205.011719 C 231.972656 205.664062 231.414062 206.292969 230.828125 206.894531 C 230.238281 207.492188 229.625 208.0625 228.980469 208.601562 C 228.335938 209.144531 227.667969 209.648438 226.976562 210.125 C 226.28125 210.597656 225.566406 211.039062 224.832031 211.441406 C 224.09375 211.84375 223.339844 212.210938 222.566406 212.542969 C 221.796875 212.871094 221.007812 213.164062 220.207031 213.414062 C 219.40625 213.667969 218.59375 213.882812 217.773438 214.054688 C 216.953125 214.226562 216.125 214.359375 215.289062 214.449219 C 214.453125 214.542969 213.617188 214.589844 212.777344 214.601562 C 211.9375 214.609375 211.097656 214.578125 210.261719 214.503906 C 209.425781 214.429688 208.59375 214.316406 207.769531 214.164062 C 206.941406 214.007812 206.125 213.8125 205.320312 213.578125 C 204.515625 213.34375 203.722656 213.066406 202.941406 212.753906 C 202.164062 212.441406 201.398438 212.089844 200.65625 211.703125 C 199.910156 211.316406 199.1875 210.890625 198.484375 210.433594 C 197.777344 209.972656 197.101562 209.480469 196.445312 208.957031 C 195.789062 208.429688 195.164062 207.875 194.5625 207.285156 C 193.960938 206.699219 193.390625 206.082031 192.851562 205.441406 C 192.3125 204.796875 191.804688 204.128906 191.332031 203.433594 C 190.855469 202.742188 190.417969 202.027344 190.011719 201.289062 C 189.609375 200.554688 189.242188 199.800781 188.914062 199.027344 C 188.582031 198.253906 188.292969 197.46875 188.039062 196.667969 C 187.785156 195.867188 187.574219 195.054688 187.402344 194.234375 C 187.226562 193.410156 187.097656 192.582031 187.003906 191.746094 C 186.914062 190.914062 186.863281 190.074219 186.851562 189.234375 C 186.84375 188.394531 186.875 187.558594 186.949219 186.71875 C 187.023438 185.882812 187.136719 185.050781 187.292969 184.226562 C 187.445312 183.402344 187.640625 182.585938 187.875 181.78125 C 188.113281 180.972656 188.386719 180.179688 188.699219 179.402344 C 189.011719 178.621094 189.363281 177.859375 189.75 177.113281 C 190.136719 176.371094 190.5625 175.644531 191.019531 174.941406 C 191.480469 174.238281 191.972656 173.558594 192.496094 172.902344 C 193.023438 172.25 193.578125 171.621094 194.167969 171.019531 C 194.753906 170.421875 195.371094 169.851562 196.011719 169.3125 C 196.65625 168.769531 197.324219 168.265625 198.019531 167.789062 C 198.710938 167.316406 199.425781 166.875 200.160156 166.472656 C 200.898438 166.070312 201.652344 165.703125 202.425781 165.371094 C 203.199219 165.042969 203.984375 164.75 204.785156 164.5 C 205.585938 164.246094 206.398438 164.035156 207.21875 163.859375 C 208.042969 163.6875 208.871094 163.554688 209.703125 163.464844 C 210.539062 163.375 211.378906 163.324219 212.21875 163.3125 C 213.058594 163.304688 213.894531 163.335938 214.730469 163.410156 C 215.570312 163.484375 216.398438 163.597656 217.226562 163.753906 C 218.050781 163.90625 218.867188 164.101562 219.671875 164.335938 C 220.480469 164.574219 221.273438 164.847656 222.050781 165.160156 C 222.832031 165.472656 223.59375 165.824219 224.339844 166.210938 C 225.082031 166.597656 225.808594 167.023438 226.511719 167.480469 C 227.214844 167.941406 227.894531 168.433594 228.546875 168.957031 C 229.203125 169.484375 229.832031 170.039062 230.429688 170.628906 C 231.03125 171.214844 231.601562 171.832031 232.140625 172.472656 Z M 232.140625 172.472656 " fill-opacity="1" fill-rule="nonzero"/><path fill="#ffffff" d="M 115.269531 339.839844 C 116.09375 339.984375 116.914062 340.171875 117.722656 340.394531 C 118.53125 340.621094 119.328125 340.886719 120.109375 341.191406 C 120.890625 341.496094 121.65625 341.839844 122.40625 342.21875 C 123.15625 342.597656 123.886719 343.015625 124.59375 343.464844 C 125.300781 343.917969 125.984375 344.402344 126.648438 344.921875 C 127.308594 345.4375 127.941406 345.988281 128.546875 346.570312 C 129.15625 347.148438 129.730469 347.757812 130.277344 348.394531 C 130.824219 349.035156 131.339844 349.695312 131.820312 350.382812 C 132.300781 351.074219 132.75 351.78125 133.160156 352.515625 C 133.574219 353.246094 133.949219 353.996094 134.285156 354.765625 C 134.625 355.535156 134.925781 356.316406 135.1875 357.117188 C 135.445312 357.914062 135.667969 358.722656 135.851562 359.542969 C 136.03125 360.363281 136.171875 361.191406 136.273438 362.023438 C 136.375 362.859375 136.433594 363.695312 136.453125 364.535156 C 136.46875 365.375 136.445312 366.210938 136.382812 367.050781 C 136.320312 367.886719 136.214844 368.71875 136.066406 369.546875 C 135.921875 370.375 135.734375 371.191406 135.507812 372 C 135.285156 372.808594 135.019531 373.605469 134.714844 374.386719 C 134.410156 375.171875 134.066406 375.9375 133.6875 376.6875 C 133.308594 377.433594 132.890625 378.164062 132.441406 378.871094 C 131.988281 379.582031 131.503906 380.265625 130.984375 380.925781 C 130.46875 381.585938 129.917969 382.21875 129.335938 382.828125 C 128.757812 383.433594 128.148438 384.011719 127.507812 384.558594 C 126.871094 385.105469 126.210938 385.617188 125.519531 386.097656 C 124.832031 386.582031 124.125 387.027344 123.390625 387.441406 C 122.660156 387.851562 121.910156 388.226562 121.140625 388.566406 C 120.371094 388.902344 119.589844 389.203125 118.789062 389.464844 C 117.992188 389.726562 117.183594 389.945312 116.363281 390.128906 C 115.542969 390.3125 114.714844 390.453125 113.882812 390.550781 C 113.046875 390.652344 112.210938 390.710938 111.371094 390.730469 C 110.53125 390.75 109.695312 390.726562 108.855469 390.660156 C 108.019531 390.597656 107.1875 390.492188 106.359375 390.347656 C 105.53125 390.199219 104.714844 390.015625 103.90625 389.789062 C 103.097656 389.5625 102.300781 389.296875 101.519531 388.992188 C 100.734375 388.6875 99.96875 388.347656 99.21875 387.964844 C 98.472656 387.585938 97.742188 387.171875 97.035156 386.71875 C 96.324219 386.269531 95.640625 385.785156 94.980469 385.265625 C 94.320312 384.746094 93.6875 384.195312 93.078125 383.617188 C 92.472656 383.035156 91.894531 382.425781 91.347656 381.789062 C 90.800781 381.152344 90.289062 380.488281 89.804688 379.800781 C 89.324219 379.113281 88.878906 378.402344 88.464844 377.671875 C 88.054688 376.9375 87.679688 376.1875 87.339844 375.417969 C 87.003906 374.652344 86.703125 373.867188 86.441406 373.070312 C 86.179688 372.269531 85.957031 371.460938 85.777344 370.640625 C 85.59375 369.820312 85.453125 368.996094 85.355469 368.160156 C 85.253906 367.328125 85.195312 366.488281 85.175781 365.652344 C 85.15625 364.8125 85.179688 363.972656 85.246094 363.136719 C 85.308594 362.296875 85.414062 361.464844 85.558594 360.636719 C 85.707031 359.8125 85.890625 358.992188 86.117188 358.183594 C 86.34375 357.375 86.609375 356.578125 86.914062 355.796875 C 87.21875 355.015625 87.558594 354.25 87.941406 353.5 C 88.320312 352.75 88.734375 352.019531 89.1875 351.3125 C 89.636719 350.605469 90.121094 349.921875 90.640625 349.257812 C 91.160156 348.597656 91.710938 347.964844 92.289062 347.359375 C 92.871094 346.75 93.480469 346.175781 94.117188 345.628906 C 94.753906 345.082031 95.417969 344.566406 96.105469 344.085938 C 96.792969 343.605469 97.503906 343.15625 98.234375 342.746094 C 98.96875 342.332031 99.71875 341.957031 100.488281 341.621094 C 101.253906 341.28125 102.039062 340.980469 102.835938 340.71875 C 103.636719 340.460938 104.445312 340.238281 105.265625 340.054688 C 106.085938 339.875 106.910156 339.734375 107.746094 339.632812 C 108.578125 339.53125 109.414062 339.472656 110.253906 339.453125 C 111.09375 339.4375 111.933594 339.460938 112.769531 339.523438 C 113.609375 339.585938 114.441406 339.691406 115.269531 339.839844 Z M 115.269531 339.839844 " fill-opacity="1" fill-rule="nonzero"/><path fill="#ffffff" d="M 168.335938 552.519531 C 168.753906 553.246094 169.136719 553.996094 169.484375 554.757812 C 169.832031 555.523438 170.140625 556.304688 170.410156 557.097656 C 170.679688 557.894531 170.910156 558.703125 171.101562 559.519531 C 171.289062 560.335938 171.441406 561.164062 171.550781 561.996094 C 171.660156 562.828125 171.730469 563.664062 171.757812 564.503906 C 171.785156 565.34375 171.769531 566.183594 171.714844 567.019531 C 171.660156 567.859375 171.5625 568.691406 171.425781 569.519531 C 171.289062 570.347656 171.113281 571.167969 170.894531 571.980469 C 170.679688 572.792969 170.421875 573.589844 170.125 574.375 C 169.832031 575.160156 169.496094 575.929688 169.125 576.683594 C 168.753906 577.4375 168.347656 578.171875 167.902344 578.882812 C 167.460938 579.597656 166.980469 580.289062 166.46875 580.953125 C 165.960938 581.621094 165.417969 582.261719 164.84375 582.871094 C 164.269531 583.484375 163.664062 584.070312 163.035156 584.621094 C 162.402344 585.175781 161.746094 585.699219 161.0625 586.1875 C 160.378906 586.675781 159.675781 587.132812 158.949219 587.550781 C 158.21875 587.972656 157.472656 588.355469 156.710938 588.699219 C 155.945312 589.046875 155.164062 589.355469 154.367188 589.625 C 153.574219 589.894531 152.765625 590.125 151.949219 590.316406 C 151.132812 590.507812 150.304688 590.65625 149.472656 590.765625 C 148.640625 590.878906 147.804688 590.945312 146.964844 590.972656 C 146.125 591 145.285156 590.988281 144.449219 590.933594 C 143.609375 590.875 142.777344 590.78125 141.949219 590.644531 C 141.121094 590.507812 140.300781 590.332031 139.488281 590.113281 C 138.675781 589.894531 137.878906 589.640625 137.09375 589.34375 C 136.304688 589.046875 135.535156 588.714844 134.785156 588.34375 C 134.03125 587.96875 133.296875 587.5625 132.582031 587.121094 C 131.871094 586.675781 131.179688 586.199219 130.515625 585.6875 C 129.847656 585.175781 129.207031 584.632812 128.59375 584.058594 C 127.984375 583.484375 127.398438 582.882812 126.84375 582.25 C 126.292969 581.621094 125.769531 580.960938 125.28125 580.28125 C 124.792969 579.597656 124.335938 578.890625 123.917969 578.164062 C 123.496094 577.4375 123.113281 576.691406 122.765625 575.925781 C 122.421875 575.160156 122.113281 574.382812 121.84375 573.585938 C 121.574219 572.789062 121.34375 571.984375 121.152344 571.164062 C 120.960938 570.347656 120.8125 569.523438 120.699219 568.691406 C 120.589844 567.855469 120.523438 567.019531 120.496094 566.183594 C 120.46875 565.34375 120.480469 564.503906 120.535156 563.664062 C 120.589844 562.828125 120.6875 561.992188 120.824219 561.164062 C 120.960938 560.335938 121.136719 559.515625 121.355469 558.707031 C 121.574219 557.894531 121.828125 557.09375 122.125 556.308594 C 122.421875 555.523438 122.753906 554.753906 123.125 554 C 123.496094 553.246094 123.90625 552.515625 124.347656 551.800781 C 124.792969 551.085938 125.269531 550.398438 125.78125 549.730469 C 126.292969 549.066406 126.835938 548.425781 127.410156 547.8125 C 127.984375 547.199219 128.585938 546.617188 129.21875 546.0625 C 129.847656 545.507812 130.507812 544.988281 131.1875 544.496094 C 131.871094 544.007812 132.578125 543.554688 133.304688 543.132812 C 134.03125 542.714844 134.777344 542.332031 135.542969 541.984375 C 136.308594 541.636719 137.085938 541.328125 137.882812 541.058594 C 138.679688 540.789062 139.484375 540.558594 140.300781 540.367188 C 141.121094 540.179688 141.945312 540.027344 142.777344 539.917969 C 143.609375 539.808594 144.445312 539.738281 145.285156 539.710938 C 146.125 539.683594 146.964844 539.699219 147.804688 539.753906 C 148.640625 539.808594 149.472656 539.902344 150.304688 540.042969 C 151.132812 540.179688 151.953125 540.355469 152.761719 540.574219 C 153.574219 540.789062 154.371094 541.046875 155.160156 541.34375 C 155.945312 541.636719 156.714844 541.972656 157.46875 542.34375 C 158.222656 542.714844 158.953125 543.121094 159.667969 543.566406 C 160.378906 544.007812 161.070312 544.488281 161.738281 544.996094 C 162.402344 545.507812 163.042969 546.050781 163.65625 546.625 C 164.269531 547.199219 164.851562 547.804688 165.40625 548.433594 C 165.960938 549.066406 166.480469 549.722656 166.96875 550.40625 C 167.460938 551.089844 167.914062 551.792969 168.335938 552.519531 Z M 168.335938 552.519531 " fill-opacity="1" fill-rule="nonzero"/><path fill="#ffffff" d="M 310.699219 671.953125 C 311.488281 672.238281 312.261719 672.566406 313.019531 672.929688 C 313.777344 673.292969 314.515625 673.691406 315.230469 674.125 C 315.949219 674.5625 316.644531 675.03125 317.316406 675.535156 C 317.988281 676.039062 318.632812 676.578125 319.253906 677.144531 C 319.871094 677.710938 320.464844 678.308594 321.023438 678.933594 C 321.585938 679.558594 322.113281 680.210938 322.609375 680.886719 C 323.105469 681.566406 323.566406 682.265625 323.996094 682.988281 C 324.425781 683.710938 324.816406 684.453125 325.171875 685.214844 C 325.523438 685.976562 325.839844 686.753906 326.121094 687.542969 C 326.398438 688.335938 326.636719 689.140625 326.835938 689.957031 C 327.039062 690.773438 327.195312 691.597656 327.316406 692.429688 C 327.433594 693.257812 327.511719 694.09375 327.546875 694.933594 C 327.585938 695.773438 327.578125 696.613281 327.535156 697.449219 C 327.488281 698.289062 327.402344 699.125 327.273438 699.953125 C 327.144531 700.785156 326.976562 701.605469 326.769531 702.417969 C 326.558594 703.234375 326.3125 704.035156 326.023438 704.824219 C 325.738281 705.613281 325.414062 706.386719 325.050781 707.144531 C 324.6875 707.902344 324.285156 708.636719 323.851562 709.355469 C 323.414062 710.074219 322.945312 710.769531 322.441406 711.441406 C 321.9375 712.113281 321.402344 712.757812 320.832031 713.378906 C 320.265625 713.996094 319.667969 714.585938 319.042969 715.148438 C 318.417969 715.707031 317.765625 716.238281 317.089844 716.734375 C 316.414062 717.230469 315.710938 717.691406 314.988281 718.121094 C 314.265625 718.546875 313.523438 718.9375 312.761719 719.292969 C 312.003906 719.648438 311.226562 719.964844 310.433594 720.246094 C 309.640625 720.523438 308.835938 720.761719 308.019531 720.960938 C 307.203125 721.160156 306.382812 721.320312 305.550781 721.4375 C 304.71875 721.558594 303.882812 721.636719 303.042969 721.671875 C 302.203125 721.707031 301.367188 721.703125 300.527344 721.65625 C 299.6875 721.613281 298.855469 721.523438 298.023438 721.398438 C 297.191406 721.269531 296.371094 721.101562 295.558594 720.894531 C 294.746094 720.683594 293.941406 720.4375 293.152344 720.148438 C 292.363281 719.863281 291.589844 719.535156 290.832031 719.171875 C 290.078125 718.808594 289.339844 718.410156 288.621094 717.972656 C 287.902344 717.539062 287.207031 717.070312 286.535156 716.566406 C 285.863281 716.0625 285.21875 715.523438 284.597656 714.957031 C 283.980469 714.390625 283.390625 713.792969 282.828125 713.167969 C 282.269531 712.542969 281.742188 711.890625 281.242188 711.214844 C 280.746094 710.535156 280.285156 709.835938 279.855469 709.113281 C 279.429688 708.390625 279.039062 707.648438 278.683594 706.886719 C 278.328125 706.125 278.011719 705.347656 277.734375 704.558594 C 277.453125 703.765625 277.214844 702.960938 277.015625 702.144531 C 276.816406 701.328125 276.65625 700.503906 276.539062 699.671875 C 276.417969 698.84375 276.34375 698.007812 276.304688 697.167969 C 276.269531 696.328125 276.273438 695.488281 276.320312 694.652344 C 276.363281 693.8125 276.453125 692.976562 276.578125 692.148438 C 276.707031 691.316406 276.875 690.496094 277.085938 689.683594 C 277.292969 688.867188 277.539062 688.066406 277.828125 687.277344 C 278.117188 686.488281 278.441406 685.714844 278.804688 684.957031 C 279.167969 684.199219 279.566406 683.464844 280.003906 682.746094 C 280.4375 682.027344 280.910156 681.332031 281.414062 680.660156 C 281.917969 679.988281 282.453125 679.34375 283.019531 678.722656 C 283.585938 678.105469 284.183594 677.515625 284.808594 676.953125 C 285.433594 676.394531 286.085938 675.863281 286.761719 675.367188 C 287.441406 674.871094 288.140625 674.410156 288.863281 673.980469 C 289.585938 673.554688 290.328125 673.160156 291.089844 672.808594 C 291.851562 672.453125 292.628906 672.136719 293.421875 671.855469 C 294.210938 671.578125 295.015625 671.339844 295.832031 671.140625 C 296.648438 670.941406 297.472656 670.78125 298.304688 670.664062 C 299.136719 670.542969 299.96875 670.464844 300.808594 670.429688 C 301.648438 670.394531 302.488281 670.398438 303.328125 670.441406 C 304.164062 670.488281 305 670.574219 305.828125 670.703125 C 306.660156 670.832031 307.480469 671 308.296875 671.207031 C 309.109375 671.417969 309.910156 671.664062 310.699219 671.953125 Z M 310.699219 671.953125 " fill-opacity="1" fill-rule="nonzero"/><path fill="#ffffff" d="M 611.335938 168.929688 C 611.980469 169.46875 612.59375 170.039062 613.183594 170.640625 C 613.769531 171.242188 614.324219 171.867188 614.851562 172.523438 C 615.375 173.179688 615.867188 173.859375 616.328125 174.5625 C 616.785156 175.265625 617.210938 175.988281 617.597656 176.734375 C 617.984375 177.480469 618.335938 178.242188 618.648438 179.019531 C 618.960938 179.800781 619.234375 180.59375 619.46875 181.398438 C 619.707031 182.207031 619.898438 183.019531 620.054688 183.847656 C 620.210938 184.671875 620.324219 185.503906 620.398438 186.339844 C 620.46875 187.175781 620.5 188.015625 620.492188 188.855469 C 620.484375 189.695312 620.433594 190.53125 620.339844 191.367188 C 620.25 192.203125 620.117188 193.03125 619.945312 193.851562 C 619.773438 194.675781 619.558594 195.484375 619.304688 196.285156 C 619.054688 197.085938 618.761719 197.875 618.433594 198.648438 C 618.101562 199.417969 617.734375 200.171875 617.332031 200.910156 C 616.929688 201.644531 616.488281 202.359375 616.015625 203.054688 C 615.539062 203.746094 615.03125 204.414062 614.492188 205.058594 C 613.953125 205.703125 613.382812 206.316406 612.78125 206.90625 C 612.183594 207.492188 611.554688 208.050781 610.898438 208.574219 C 610.246094 209.101562 609.566406 209.59375 608.863281 210.050781 C 608.160156 210.511719 607.433594 210.933594 606.6875 211.320312 C 605.945312 211.710938 605.183594 212.058594 604.402344 212.375 C 603.625 212.6875 602.832031 212.960938 602.023438 213.195312 C 601.21875 213.429688 600.402344 213.625 599.578125 213.78125 C 598.75 213.933594 597.917969 214.050781 597.082031 214.121094 C 596.246094 214.195312 595.40625 214.226562 594.566406 214.21875 C 593.726562 214.210938 592.890625 214.160156 592.054688 214.066406 C 591.222656 213.976562 590.394531 213.84375 589.570312 213.671875 C 588.75 213.5 587.9375 213.285156 587.136719 213.035156 C 586.335938 212.78125 585.550781 212.488281 584.777344 212.160156 C 584.003906 211.828125 583.25 211.464844 582.515625 211.058594 C 581.777344 210.65625 581.0625 210.214844 580.371094 209.742188 C 579.675781 209.269531 579.007812 208.761719 578.363281 208.222656 C 577.722656 207.679688 577.105469 207.109375 576.519531 206.511719 C 575.933594 205.910156 575.375 205.28125 574.851562 204.628906 C 574.324219 203.972656 573.832031 203.292969 573.371094 202.589844 C 572.914062 201.886719 572.492188 201.164062 572.101562 200.417969 C 571.714844 199.671875 571.363281 198.910156 571.050781 198.128906 C 570.738281 197.351562 570.464844 196.558594 570.230469 195.753906 C 569.996094 194.945312 569.800781 194.128906 569.644531 193.304688 C 569.492188 192.480469 569.378906 191.648438 569.304688 190.8125 C 569.230469 189.972656 569.199219 189.136719 569.207031 188.296875 C 569.21875 187.457031 569.269531 186.621094 569.359375 185.785156 C 569.449219 184.949219 569.582031 184.121094 569.753906 183.300781 C 569.929688 182.476562 570.140625 181.664062 570.394531 180.863281 C 570.648438 180.0625 570.9375 179.277344 571.269531 178.503906 C 571.597656 177.730469 571.964844 176.976562 572.367188 176.242188 C 572.773438 175.503906 573.210938 174.789062 573.6875 174.097656 C 574.160156 173.402344 574.667969 172.734375 575.207031 172.09375 C 575.746094 171.449219 576.316406 170.832031 576.917969 170.246094 C 577.519531 169.660156 578.144531 169.101562 578.800781 168.578125 C 579.457031 168.050781 580.136719 167.558594 580.839844 167.097656 C 581.542969 166.640625 582.265625 166.21875 583.011719 165.828125 C 583.757812 165.441406 584.519531 165.089844 585.296875 164.777344 C 586.078125 164.464844 586.871094 164.191406 587.675781 163.957031 C 588.484375 163.722656 589.300781 163.527344 590.125 163.371094 C 590.949219 163.214844 591.78125 163.101562 592.617188 163.027344 C 593.453125 162.957031 594.292969 162.921875 595.132812 162.933594 C 595.972656 162.941406 596.808594 162.992188 597.644531 163.082031 C 598.480469 163.175781 599.308594 163.308594 600.128906 163.480469 C 600.953125 163.652344 601.761719 163.867188 602.5625 164.117188 C 603.363281 164.371094 604.152344 164.660156 604.925781 164.992188 C 605.695312 165.320312 606.449219 165.6875 607.1875 166.09375 C 607.921875 166.496094 608.636719 166.933594 609.332031 167.410156 C 610.023438 167.882812 610.691406 168.390625 611.335938 168.929688 Z M 611.335938 168.929688 " fill-opacity="1" fill-rule="nonzero"/><path fill="#ffffff" d="M 721.785156 360.191406 C 721.933594 361.019531 722.039062 361.851562 722.101562 362.6875 C 722.164062 363.527344 722.1875 364.363281 722.171875 365.203125 C 722.152344 366.042969 722.09375 366.878906 721.992188 367.714844 C 721.890625 368.546875 721.75 369.375 721.570312 370.195312 C 721.386719 371.015625 721.164062 371.824219 720.902344 372.621094 C 720.644531 373.421875 720.34375 374.203125 720.003906 374.972656 C 719.667969 375.742188 719.292969 376.492188 718.878906 377.222656 C 718.46875 377.957031 718.019531 378.664062 717.539062 379.351562 C 717.058594 380.042969 716.542969 380.703125 715.996094 381.339844 C 715.449219 381.980469 714.871094 382.589844 714.265625 383.167969 C 713.660156 383.75 713.027344 384.300781 712.367188 384.816406 C 711.703125 385.335938 711.019531 385.820312 710.3125 386.273438 C 709.605469 386.722656 708.875 387.140625 708.125 387.519531 C 707.375 387.898438 706.609375 388.242188 705.828125 388.546875 C 705.046875 388.851562 704.25 389.117188 703.441406 389.339844 C 702.632812 389.566406 701.8125 389.753906 700.988281 389.898438 C 700.160156 390.046875 699.328125 390.152344 698.488281 390.214844 C 697.652344 390.277344 696.8125 390.300781 695.972656 390.285156 C 695.132812 390.265625 694.296875 390.207031 693.464844 390.105469 C 692.628906 390.003906 691.804688 389.863281 690.984375 389.683594 C 690.164062 389.5 689.355469 389.277344 688.554688 389.019531 C 687.757812 388.757812 686.972656 388.457031 686.207031 388.117188 C 685.4375 387.78125 684.6875 387.40625 683.953125 386.992188 C 683.222656 386.582031 682.511719 386.132812 681.824219 385.652344 C 681.136719 385.171875 680.472656 384.65625 679.835938 384.109375 C 679.199219 383.5625 678.589844 382.988281 678.007812 382.378906 C 677.429688 381.773438 676.878906 381.140625 676.359375 380.480469 C 675.839844 379.816406 675.355469 379.132812 674.90625 378.425781 C 674.453125 377.71875 674.039062 376.988281 673.660156 376.238281 C 673.277344 375.488281 672.9375 374.722656 672.632812 373.941406 C 672.328125 373.160156 672.0625 372.363281 671.835938 371.554688 C 671.609375 370.746094 671.425781 369.925781 671.277344 369.101562 C 671.132812 368.273438 671.027344 367.441406 670.964844 366.601562 C 670.898438 365.765625 670.875 364.925781 670.894531 364.085938 C 670.914062 363.246094 670.972656 362.410156 671.074219 361.578125 C 671.171875 360.742188 671.3125 359.917969 671.496094 359.097656 C 671.675781 358.277344 671.898438 357.46875 672.160156 356.667969 C 672.421875 355.871094 672.722656 355.085938 673.058594 354.320312 C 673.398438 353.550781 673.773438 352.800781 674.183594 352.066406 C 674.597656 351.335938 675.042969 350.625 675.523438 349.9375 C 676.007812 349.25 676.519531 348.585938 677.066406 347.949219 C 677.613281 347.3125 678.191406 346.703125 678.796875 346.121094 C 679.40625 345.542969 680.039062 344.992188 680.699219 344.472656 C 681.359375 343.953125 682.042969 343.46875 682.753906 343.019531 C 683.460938 342.566406 684.191406 342.152344 684.9375 341.773438 C 685.6875 341.390625 686.453125 341.050781 687.238281 340.746094 C 688.019531 340.441406 688.816406 340.175781 689.625 339.949219 C 690.433594 339.722656 691.25 339.539062 692.078125 339.390625 C 692.90625 339.246094 693.738281 339.140625 694.574219 339.078125 C 695.410156 339.011719 696.25 338.988281 697.089844 339.007812 C 697.929688 339.027344 698.765625 339.085938 699.601562 339.1875 C 700.433594 339.285156 701.261719 339.425781 702.082031 339.609375 C 702.902344 339.789062 703.710938 340.011719 704.507812 340.273438 C 705.308594 340.535156 706.089844 340.835938 706.859375 341.171875 C 707.628906 341.511719 708.378906 341.886719 709.109375 342.296875 C 709.84375 342.710938 710.550781 343.15625 711.238281 343.636719 C 711.929688 344.121094 712.589844 344.632812 713.226562 345.179688 C 713.867188 345.726562 714.476562 346.304688 715.054688 346.910156 C 715.636719 347.519531 716.1875 348.152344 716.703125 348.8125 C 717.222656 349.472656 717.707031 350.15625 718.160156 350.867188 C 718.609375 351.574219 719.027344 352.304688 719.40625 353.050781 C 719.785156 353.800781 720.128906 354.566406 720.433594 355.351562 C 720.738281 356.132812 721.003906 356.929688 721.226562 357.738281 C 721.453125 358.546875 721.640625 359.363281 721.785156 360.191406 Z M 721.785156 360.191406 " fill-opacity="1" fill-rule="nonzero"/><path fill="#ffffff" d="M 584.371094 583.105469 C 598.050781 583.105469 607.464844 579.964844 613.570312 576.195312 C 617.402344 573.847656 619.835938 571.3125 621.269531 569.453125 C 621.679688 569 622.050781 568.5 622.367188 567.945312 L 644.382812 529.8125 C 644.710938 529.25 644.960938 528.667969 645.148438 528.074219 C 646.109375 525.742188 647.152344 522.042969 647.140625 517.0625 C 647.15625 509.472656 644.722656 499.273438 637.035156 486.839844 C 630.867188 476.855469 621.34375 465.332031 606.785156 452.101562 C 631.566406 441.957031 646.507812 431.605469 655.683594 422.050781 C 666.542969 410.820312 668.921875 400.332031 668.84375 394.753906 C 668.84375 394.429688 668.828125 394.152344 668.816406 393.863281 C 668.84375 393.230469 668.808594 392.585938 668.695312 391.9375 L 661.046875 348.570312 C 660.945312 347.984375 660.785156 347.421875 660.574219 346.886719 C 659.277344 342.804688 655.507812 335.34375 645.6875 328.84375 C 634.144531 321.132812 615.058594 314.511719 582.277344 313.214844 C 596.144531 286.835938 600.550781 268.066406 600.582031 254.4375 C 600.597656 245.421875 598.5625 238.714844 596.15625 234.179688 C 594.855469 231.707031 593.480469 229.921875 592.347656 228.6875 C 591.96875 228.199219 591.539062 227.742188 591.050781 227.328125 L 557.320312 199.023438 C 557.125 198.863281 556.910156 198.75 556.707031 198.609375 C 556.503906 198.460938 556.28125 198.3125 556.039062 198.152344 C 555.957031 198.105469 555.878906 198.046875 555.796875 198 C 552.746094 196.070312 546.894531 193.457031 538.167969 193.5 C 530.265625 193.496094 520.214844 195.542969 507.742188 201.390625 C 498.144531 205.890625 487.0625 212.648438 474.257812 222.5625 C 467.695312 192.378906 458.59375 175 449.539062 164.675781 C 440.753906 154.5625 431.804688 151.828125 427.332031 151.289062 C 426.820312 151.199219 426.300781 151.140625 425.761719 151.140625 L 381.726562 151.140625 C 381.191406 151.140625 380.671875 151.199219 380.164062 151.289062 C 375.6875 151.828125 366.730469 154.5625 357.945312 164.679688 C 348.847656 175.054688 339.699219 192.546875 333.132812 223.011719 C 320.304688 213.074219 309.207031 206.304688 299.59375 201.796875 C 287.121094 195.949219 277.070312 193.902344 269.167969 193.902344 C 260.449219 193.859375 254.601562 196.476562 251.546875 198.40625 C 251.464844 198.449219 251.386719 198.511719 251.300781 198.5625 C 251.042969 198.730469 250.804688 198.890625 250.585938 199.046875 C 250.402344 199.179688 250.203125 199.28125 250.023438 199.429688 L 216.289062 227.734375 C 216.003906 227.976562 215.769531 228.257812 215.519531 228.527344 C 215.496094 228.550781 215.472656 228.578125 215.445312 228.601562 C 215.300781 228.761719 215.132812 228.910156 215.003906 229.078125 C 213.863281 230.316406 212.480469 232.105469 211.175781 234.589844 C 208.773438 239.121094 206.738281 245.828125 206.753906 254.847656 C 206.78125 268.472656 211.1875 287.246094 225.058594 313.621094 C 192.273438 314.917969 173.191406 321.539062 161.648438 329.25 C 151.789062 335.773438 148.03125 343.265625 146.746094 347.335938 C 146.546875 347.859375 146.390625 348.40625 146.289062 348.980469 L 138.640625 392.339844 C 138.53125 392.976562 138.492188 393.609375 138.519531 394.226562 C 138.503906 394.527344 138.488281 394.824219 138.488281 395.164062 C 138.410156 400.738281 140.785156 411.226562 151.652344 422.453125 C 160.824219 432.011719 175.765625 442.363281 200.550781 452.507812 C 185.988281 465.738281 176.460938 477.261719 170.292969 487.25 C 162.605469 499.679688 160.175781 509.882812 160.183594 517.472656 C 160.175781 522.457031 161.226562 526.164062 162.191406 528.496094 C 162.378906 529.082031 162.628906 529.660156 162.949219 530.214844 L 184.96875 568.351562 C 185.285156 568.894531 185.648438 569.394531 186.054688 569.84375 C 187.484375 571.703125 189.925781 574.246094 193.761719 576.597656 C 199.863281 580.371094 209.285156 583.511719 222.964844 583.511719 C 223.003906 583.511719 223.035156 583.511719 223.070312 583.511719 C 235.234375 583.503906 250.8125 581.121094 271.074219 574.640625 C 269.640625 585.210938 269 594.472656 268.996094 602.558594 C 268.988281 624.769531 273.71875 638.5625 279.4375 647.066406 C 283.375 652.960938 287.722656 656.042969 290.539062 657.519531 C 291.058594 657.847656 291.617188 658.121094 292.210938 658.339844 L 333.59375 673.402344 C 334.191406 673.621094 334.804688 673.765625 335.410156 673.851562 C 336.816406 674.160156 338.667969 674.421875 340.925781 674.421875 C 340.976562 674.421875 341.027344 674.421875 341.078125 674.421875 C 347.972656 674.421875 358.226562 671.808594 370.101562 662.488281 C 380.074219 654.6875 391.367188 642.285156 403.792969 622.542969 C 416.117188 642.050781 427.324219 654.335938 437.234375 662.082031 C 449.109375 671.40625 459.371094 674.019531 466.265625 674.019531 C 466.3125 674.019531 466.359375 674.019531 466.40625 674.019531 C 468.675781 674.019531 470.53125 673.753906 471.9375 673.441406 C 472.539062 673.359375 473.148438 673.214844 473.746094 672.996094 L 515.125 657.933594 C 515.71875 657.71875 516.277344 657.441406 516.792969 657.117188 C 519.609375 655.636719 523.957031 652.558594 527.898438 646.65625 C 533.613281 638.15625 538.339844 624.363281 538.335938 602.152344 C 538.332031 594.066406 537.691406 584.800781 536.257812 574.234375 C 556.515625 580.714844 572.097656 583.09375 584.265625 583.105469 C 584.296875 583.105469 584.335938 583.105469 584.371094 583.105469 Z M 435.792969 594.480469 L 457.1875 653.265625 C 454.714844 652.0625 451.808594 650.304688 448.449219 647.707031 C 439.046875 640.382812 426.375 626.296875 411.691406 600.1875 C 409.21875 595.796875 403.65625 594.246094 399.273438 596.71875 C 397.449219 597.742188 396.125 599.304688 395.367188 601.089844 C 380.796875 626.878906 368.226562 640.84375 358.878906 648.109375 C 355.523438 650.710938 352.625 652.46875 350.152344 653.667969 L 371.546875 594.886719 L 313.613281 573.800781 L 292.214844 632.589844 C 289.667969 626.933594 287.238281 617.589844 287.238281 602.5625 C 287.238281 592.140625 288.410156 579.023438 291.480469 562.679688 C 291.492188 562.628906 291.496094 562.574219 291.503906 562.523438 C 291.535156 562.328125 291.5625 562.132812 291.582031 561.9375 C 291.59375 561.824219 291.605469 561.710938 291.613281 561.601562 C 291.625 561.421875 291.628906 561.242188 291.632812 561.058594 C 291.632812 560.929688 291.632812 560.800781 291.628906 560.671875 C 291.621094 560.515625 291.609375 560.359375 291.597656 560.199219 C 291.582031 560.046875 291.570312 559.898438 291.550781 559.753906 C 291.53125 559.613281 291.507812 559.480469 291.480469 559.339844 C 291.449219 559.171875 291.414062 559.007812 291.375 558.84375 C 291.347656 558.722656 291.3125 558.601562 291.28125 558.484375 C 291.230469 558.308594 291.171875 558.132812 291.113281 557.960938 C 291.089844 557.902344 291.078125 557.84375 291.058594 557.785156 C 291.035156 557.726562 291.007812 557.675781 290.980469 557.617188 C 290.917969 557.453125 290.847656 557.296875 290.773438 557.136719 C 290.714844 557.011719 290.65625 556.886719 290.59375 556.769531 C 290.523438 556.636719 290.449219 556.503906 290.371094 556.375 C 290.292969 556.238281 290.214844 556.109375 290.128906 555.976562 C 290.054688 555.867188 289.976562 555.761719 289.902344 555.65625 C 289.804688 555.519531 289.703125 555.386719 289.601562 555.257812 C 289.519531 555.160156 289.4375 555.0625 289.351562 554.96875 C 289.242188 554.84375 289.132812 554.722656 289.019531 554.605469 C 288.921875 554.503906 288.820312 554.414062 288.71875 554.320312 C 288.609375 554.214844 288.5 554.117188 288.386719 554.019531 C 288.265625 553.921875 288.140625 553.824219 288.015625 553.734375 C 287.914062 553.652344 287.804688 553.574219 287.695312 553.496094 C 287.558594 553.402344 287.417969 553.316406 287.277344 553.226562 C 287.167969 553.164062 287.058594 553.097656 286.949219 553.035156 C 286.808594 552.957031 286.660156 552.882812 286.511719 552.8125 C 286.390625 552.753906 286.265625 552.691406 286.140625 552.636719 C 286.007812 552.582031 285.871094 552.527344 285.734375 552.476562 C 285.578125 552.417969 285.425781 552.363281 285.269531 552.316406 C 285.15625 552.277344 285.042969 552.246094 284.925781 552.214844 C 284.734375 552.164062 284.542969 552.117188 284.347656 552.078125 C 284.300781 552.066406 284.253906 552.050781 284.203125 552.042969 C 284.15625 552.035156 284.109375 552.03125 284.0625 552.023438 C 283.855469 551.988281 283.648438 551.957031 283.4375 551.9375 C 283.339844 551.925781 283.242188 551.917969 283.140625 551.910156 C 282.949219 551.898438 282.757812 551.890625 282.5625 551.890625 C 282.445312 551.890625 282.328125 551.890625 282.210938 551.894531 C 282.042969 551.898438 281.875 551.914062 281.707031 551.925781 C 281.5625 551.9375 281.425781 551.953125 281.285156 551.972656 C 281.140625 551.992188 281 552.015625 280.859375 552.042969 C 280.695312 552.074219 280.527344 552.105469 280.367188 552.148438 C 280.25 552.175781 280.132812 552.207031 280.015625 552.242188 C 279.835938 552.292969 279.652344 552.351562 279.476562 552.414062 C 279.421875 552.433594 279.367188 552.445312 279.316406 552.464844 C 253.144531 562.316406 235.046875 565.289062 223.078125 565.273438 C 217.65625 565.269531 213.507812 564.683594 210.335938 563.878906 L 264.515625 532.601562 L 233.6875 479.207031 L 179.511719 510.488281 C 180.515625 506.917969 182.394531 502.390625 185.820312 496.820312 C 192.09375 486.644531 203.578125 473.117188 223.882812 456.464844 C 224.011719 456.359375 224.121094 456.246094 224.242188 456.136719 C 224.3125 456.074219 224.390625 456.007812 224.460938 455.9375 C 224.753906 455.652344 225.027344 455.347656 225.273438 455.035156 C 225.320312 454.972656 225.363281 454.910156 225.410156 454.847656 C 225.648438 454.527344 225.867188 454.199219 226.058594 453.851562 C 226.078125 453.816406 226.101562 453.78125 226.121094 453.746094 C 226.332031 453.355469 226.507812 452.953125 226.65625 452.542969 C 226.667969 452.503906 226.6875 452.472656 226.699219 452.4375 C 226.722656 452.378906 226.734375 452.320312 226.753906 452.265625 C 226.808594 452.097656 226.855469 451.929688 226.902344 451.757812 C 226.9375 451.625 226.972656 451.492188 227.003906 451.359375 C 227.035156 451.214844 227.058594 451.066406 227.085938 450.921875 C 227.113281 450.765625 227.136719 450.605469 227.15625 450.453125 C 227.167969 450.324219 227.179688 450.199219 227.1875 450.070312 C 227.203125 449.898438 227.210938 449.726562 227.214844 449.558594 C 227.214844 449.4375 227.210938 449.316406 227.210938 449.199219 C 227.207031 449.027344 227.199219 448.855469 227.1875 448.683594 C 227.175781 448.554688 227.15625 448.425781 227.144531 448.296875 C 227.125 448.140625 227.105469 447.980469 227.074219 447.828125 C 227.050781 447.683594 227.019531 447.542969 226.984375 447.398438 C 226.953125 447.257812 226.921875 447.117188 226.882812 446.980469 C 226.84375 446.832031 226.792969 446.683594 226.746094 446.539062 C 226.699219 446.40625 226.65625 446.273438 226.605469 446.144531 C 226.554688 446.003906 226.492188 445.867188 226.429688 445.726562 C 226.371094 445.589844 226.308594 445.453125 226.238281 445.320312 C 226.179688 445.199219 226.117188 445.085938 226.050781 444.96875 C 225.964844 444.8125 225.875 444.65625 225.777344 444.507812 C 225.71875 444.421875 225.664062 444.335938 225.605469 444.25 C 225.480469 444.070312 225.351562 443.898438 225.21875 443.726562 C 225.191406 443.695312 225.171875 443.664062 225.148438 443.632812 C 225.121094 443.601562 225.09375 443.578125 225.070312 443.546875 C 224.917969 443.371094 224.765625 443.199219 224.601562 443.035156 C 224.550781 442.980469 224.496094 442.925781 224.441406 442.871094 C 224.28125 442.71875 224.117188 442.570312 223.949219 442.429688 C 223.882812 442.371094 223.816406 442.316406 223.746094 442.261719 C 223.589844 442.136719 223.421875 442.015625 223.253906 441.902344 C 223.167969 441.84375 223.085938 441.785156 222.996094 441.730469 C 222.839844 441.628906 222.679688 441.539062 222.519531 441.445312 C 222.414062 441.386719 222.304688 441.328125 222.195312 441.273438 C 222.042969 441.199219 221.886719 441.125 221.730469 441.058594 C 221.609375 441.003906 221.484375 440.953125 221.359375 440.90625 C 221.28125 440.875 221.207031 440.839844 221.125 440.808594 C 189.164062 429.59375 172.820312 418.230469 164.828125 409.84375 C 163.25 408.171875 161.992188 406.632812 160.96875 405.222656 L 222.558594 416.082031 L 233.261719 355.371094 L 171.683594 344.511719 C 172.507812 343.949219 173.40625 343.375 174.425781 342.785156 C 183.816406 337.429688 202.378906 331.605469 236.882812 331.625 C 238.035156 331.625 239.195312 331.628906 240.363281 331.640625 C 240.378906 331.640625 240.394531 331.640625 240.40625 331.640625 C 240.433594 331.640625 240.457031 331.644531 240.480469 331.644531 C 240.574219 331.644531 240.664062 331.628906 240.753906 331.628906 C 241.003906 331.621094 241.25 331.605469 241.492188 331.578125 C 241.625 331.5625 241.757812 331.542969 241.890625 331.523438 C 242.136719 331.484375 242.378906 331.433594 242.617188 331.378906 C 242.726562 331.351562 242.835938 331.328125 242.949219 331.296875 C 243.296875 331.199219 243.636719 331.085938 243.96875 330.945312 C 244.015625 330.929688 244.0625 330.902344 244.109375 330.882812 C 244.410156 330.75 244.703125 330.601562 244.984375 330.441406 C 245.027344 330.414062 245.074219 330.398438 245.117188 330.375 C 245.175781 330.339844 245.226562 330.300781 245.28125 330.265625 C 245.421875 330.179688 245.558594 330.085938 245.691406 329.992188 C 245.8125 329.910156 245.933594 329.824219 246.046875 329.734375 C 246.15625 329.648438 246.261719 329.5625 246.371094 329.472656 C 246.496094 329.363281 246.625 329.253906 246.746094 329.136719 C 246.832031 329.054688 246.914062 328.96875 246.996094 328.886719 C 247.121094 328.757812 247.246094 328.628906 247.363281 328.492188 C 247.4375 328.40625 247.503906 328.320312 247.578125 328.230469 C 247.6875 328.089844 247.800781 327.953125 247.902344 327.808594 C 247.972656 327.707031 248.042969 327.601562 248.109375 327.496094 C 248.199219 327.359375 248.289062 327.222656 248.367188 327.082031 C 248.441406 326.957031 248.507812 326.828125 248.570312 326.703125 C 248.636719 326.574219 248.703125 326.445312 248.765625 326.3125 C 248.828125 326.171875 248.886719 326.027344 248.941406 325.882812 C 248.992188 325.753906 249.046875 325.628906 249.089844 325.496094 C 249.140625 325.351562 249.183594 325.203125 249.226562 325.054688 C 249.265625 324.914062 249.308594 324.773438 249.339844 324.632812 C 249.371094 324.5 249.398438 324.363281 249.421875 324.230469 C 249.457031 324.058594 249.484375 323.886719 249.507812 323.714844 C 249.523438 323.605469 249.535156 323.5 249.542969 323.394531 C 249.566406 323.183594 249.578125 322.972656 249.582031 322.761719 C 249.585938 322.71875 249.589844 322.679688 249.589844 322.636719 C 249.589844 322.597656 249.585938 322.554688 249.585938 322.515625 C 249.585938 322.285156 249.578125 322.058594 249.558594 321.828125 C 249.550781 321.75 249.546875 321.671875 249.539062 321.59375 C 249.515625 321.375 249.484375 321.160156 249.445312 320.941406 C 249.429688 320.855469 249.414062 320.769531 249.398438 320.683594 C 249.359375 320.484375 249.308594 320.289062 249.253906 320.089844 C 249.226562 319.988281 249.199219 319.890625 249.164062 319.789062 C 249.109375 319.613281 249.046875 319.441406 248.980469 319.269531 C 248.9375 319.152344 248.890625 319.039062 248.84375 318.925781 C 248.777344 318.769531 248.707031 318.617188 248.628906 318.464844 C 248.566406 318.34375 248.503906 318.222656 248.4375 318.101562 C 248.398438 318.027344 248.363281 317.953125 248.320312 317.878906 C 229.382812 285.9375 224.957031 265.949219 224.992188 254.847656 C 224.992188 253.792969 225.042969 252.84375 225.109375 251.945312 L 265.3125 299.855469 L 312.542969 260.226562 L 272.332031 212.304688 C 276.980469 212.773438 283.390625 214.339844 291.855469 218.308594 C 302.425781 223.253906 316.132812 231.945312 333.238281 246.621094 C 334.957031 248.097656 337.070312 248.820312 339.171875 248.820312 C 341.742188 248.820312 344.292969 247.742188 346.097656 245.636719 C 346.917969 244.683594 347.503906 243.605469 347.863281 242.476562 C 348.066406 241.9375 348.222656 241.375 348.324219 240.78125 C 354.535156 202.996094 364.398438 184.886719 371.632812 176.730469 C 372.074219 176.234375 372.503906 175.773438 372.921875 175.34375 L 372.921875 237.902344 L 434.574219 237.902344 L 434.574219 175.375 C 435.421875 176.246094 436.3125 177.238281 437.246094 178.390625 C 444.320312 187.214844 453.347656 205.371094 459.171875 240.785156 C 459.179688 240.824219 459.195312 240.855469 459.203125 240.894531 C 459.289062 241.371094 459.40625 241.839844 459.570312 242.300781 C 459.59375 242.371094 459.621094 242.441406 459.648438 242.511719 C 459.8125 242.953125 460.007812 243.386719 460.246094 243.804688 C 460.28125 243.863281 460.320312 243.917969 460.355469 243.976562 C 460.578125 244.347656 460.828125 244.707031 461.109375 245.050781 C 461.148438 245.101562 461.179688 245.152344 461.222656 245.199219 C 461.230469 245.210938 461.242188 245.226562 461.25 245.238281 C 461.546875 245.582031 461.867188 245.886719 462.199219 246.175781 C 462.277344 246.242188 462.351562 246.304688 462.429688 246.367188 C 463.175781 246.972656 464 247.449219 464.871094 247.785156 C 464.953125 247.820312 465.035156 247.851562 465.121094 247.882812 C 465.550781 248.039062 465.992188 248.160156 466.441406 248.246094 C 466.535156 248.265625 466.628906 248.277344 466.722656 248.289062 C 467.195312 248.367188 467.667969 248.417969 468.144531 248.417969 C 468.148438 248.417969 468.15625 248.417969 468.164062 248.417969 C 468.164062 248.417969 468.164062 248.417969 468.167969 248.417969 C 468.167969 248.417969 468.171875 248.417969 468.175781 248.417969 C 468.316406 248.417969 468.457031 248.390625 468.597656 248.382812 C 468.949219 248.367188 469.304688 248.355469 469.65625 248.292969 C 469.664062 248.292969 469.671875 248.289062 469.679688 248.289062 C 469.761719 248.277344 469.839844 248.25 469.921875 248.234375 C 470.332031 248.15625 470.730469 248.050781 471.113281 247.917969 C 471.195312 247.890625 471.273438 247.867188 471.355469 247.839844 C 471.800781 247.671875 472.21875 247.46875 472.625 247.242188 C 472.695312 247.203125 472.765625 247.167969 472.835938 247.125 C 473.253906 246.875 473.648438 246.59375 474.019531 246.28125 C 474.046875 246.257812 474.082031 246.242188 474.113281 246.214844 C 491.210938 231.539062 504.917969 222.851562 515.488281 217.90625 C 523.960938 213.9375 530.371094 212.371094 535.023438 211.902344 L 494.8125 259.824219 L 542.039062 299.453125 L 582.230469 251.554688 C 582.296875 252.453125 582.347656 253.398438 582.355469 254.441406 C 582.390625 265.550781 577.960938 285.535156 559.03125 317.476562 C 558.996094 317.53125 558.972656 317.589844 558.9375 317.648438 C 558.851562 317.800781 558.773438 317.957031 558.695312 318.117188 C 558.636719 318.234375 558.578125 318.355469 558.527344 318.472656 C 558.460938 318.621094 558.402344 318.769531 558.347656 318.921875 C 558.292969 319.0625 558.246094 319.199219 558.199219 319.34375 C 558.15625 319.472656 558.117188 319.609375 558.082031 319.742188 C 558.039062 319.90625 557.996094 320.074219 557.960938 320.238281 C 557.9375 320.351562 557.917969 320.46875 557.898438 320.585938 C 557.863281 320.777344 557.835938 320.96875 557.816406 321.160156 C 557.804688 321.257812 557.796875 321.355469 557.789062 321.457031 C 557.773438 321.667969 557.765625 321.875 557.765625 322.085938 C 557.765625 322.136719 557.757812 322.183594 557.757812 322.234375 C 557.757812 322.28125 557.765625 322.328125 557.769531 322.375 C 557.773438 322.574219 557.785156 322.769531 557.804688 322.96875 C 557.816406 323.085938 557.828125 323.207031 557.839844 323.324219 C 557.863281 323.488281 557.890625 323.648438 557.921875 323.808594 C 557.949219 323.953125 557.976562 324.097656 558.011719 324.242188 C 558.042969 324.371094 558.078125 324.5 558.117188 324.628906 C 558.160156 324.789062 558.207031 324.949219 558.261719 325.105469 C 558.304688 325.222656 558.347656 325.335938 558.394531 325.453125 C 558.457031 325.609375 558.519531 325.765625 558.589844 325.917969 C 558.644531 326.039062 558.703125 326.15625 558.765625 326.273438 C 558.835938 326.410156 558.90625 326.550781 558.984375 326.683594 C 559.058594 326.816406 559.140625 326.941406 559.222656 327.070312 C 559.296875 327.183594 559.371094 327.296875 559.449219 327.410156 C 559.546875 327.546875 559.652344 327.675781 559.753906 327.808594 C 559.832031 327.902344 559.90625 328 559.988281 328.09375 C 560.101562 328.222656 560.214844 328.34375 560.335938 328.464844 C 560.425781 328.558594 560.515625 328.652344 560.609375 328.738281 C 560.722656 328.847656 560.839844 328.949219 560.960938 329.050781 C 561.074219 329.148438 561.191406 329.242188 561.308594 329.335938 C 561.414062 329.417969 561.527344 329.496094 561.640625 329.578125 C 561.785156 329.675781 561.929688 329.773438 562.078125 329.867188 C 562.128906 329.898438 562.175781 329.9375 562.230469 329.96875 C 562.269531 329.992188 562.3125 330.007812 562.351562 330.03125 C 562.648438 330.199219 562.953125 330.355469 563.265625 330.492188 C 563.300781 330.503906 563.335938 330.523438 563.371094 330.539062 C 563.707031 330.679688 564.054688 330.796875 564.40625 330.894531 C 564.503906 330.921875 564.605469 330.941406 564.703125 330.96875 C 564.957031 331.03125 565.210938 331.082031 565.472656 331.121094 C 565.59375 331.140625 565.71875 331.160156 565.839844 331.171875 C 566.101562 331.203125 566.367188 331.21875 566.632812 331.226562 C 566.710938 331.226562 566.785156 331.242188 566.863281 331.242188 C 566.882812 331.242188 566.902344 331.238281 566.921875 331.238281 C 566.941406 331.238281 566.960938 331.238281 566.980469 331.238281 C 568.144531 331.226562 569.308594 331.21875 570.460938 331.21875 C 608.464844 331.199219 627.082031 338.265625 635.519531 343.984375 C 635.578125 344.023438 635.625 344.0625 635.683594 344.101562 L 574.078125 354.96875 L 584.785156 415.679688 L 646.371094 404.820312 C 645.351562 406.226562 644.09375 407.765625 642.511719 409.441406 C 634.519531 417.824219 618.175781 429.1875 586.21875 440.40625 C 586.148438 440.429688 586.085938 440.460938 586.019531 440.488281 C 585.867188 440.542969 585.71875 440.605469 585.570312 440.671875 C 585.4375 440.730469 585.308594 440.789062 585.179688 440.851562 C 585.042969 440.917969 584.910156 440.992188 584.777344 441.066406 C 584.640625 441.144531 584.507812 441.21875 584.378906 441.300781 C 584.261719 441.375 584.152344 441.453125 584.039062 441.53125 C 583.898438 441.628906 583.757812 441.726562 583.628906 441.832031 C 583.53125 441.90625 583.4375 441.984375 583.34375 442.0625 C 583.203125 442.183594 583.066406 442.304688 582.933594 442.433594 C 582.855469 442.511719 582.773438 442.59375 582.695312 442.671875 C 582.5625 442.808594 582.429688 442.953125 582.308594 443.097656 C 582.269531 443.144531 582.226562 443.183594 582.191406 443.226562 C 582.15625 443.273438 582.125 443.320312 582.089844 443.367188 C 581.976562 443.507812 581.871094 443.65625 581.765625 443.804688 C 581.691406 443.910156 581.617188 444.019531 581.546875 444.128906 C 581.460938 444.261719 581.386719 444.394531 581.308594 444.535156 C 581.230469 444.664062 581.160156 444.796875 581.09375 444.929688 C 581.03125 445.054688 580.976562 445.179688 580.917969 445.304688 C 580.851562 445.453125 580.789062 445.597656 580.730469 445.746094 C 580.683594 445.871094 580.640625 446 580.597656 446.128906 C 580.550781 446.277344 580.5 446.421875 580.460938 446.570312 C 580.417969 446.71875 580.382812 446.867188 580.351562 447.015625 C 580.320312 447.144531 580.292969 447.277344 580.269531 447.40625 C 580.238281 447.582031 580.214844 447.757812 580.195312 447.933594 C 580.179688 448.042969 580.167969 448.148438 580.15625 448.257812 C 580.140625 448.453125 580.132812 448.648438 580.132812 448.847656 C 580.128906 448.9375 580.125 449.03125 580.128906 449.125 C 580.128906 449.324219 580.140625 449.527344 580.160156 449.730469 C 580.167969 449.824219 580.171875 449.914062 580.183594 450.007812 C 580.203125 450.199219 580.234375 450.390625 580.269531 450.582031 C 580.289062 450.691406 580.308594 450.800781 580.328125 450.90625 C 580.367188 451.074219 580.410156 451.246094 580.457031 451.417969 C 580.488281 451.546875 580.527344 451.671875 580.570312 451.800781 C 580.59375 451.878906 580.609375 451.957031 580.636719 452.035156 C 580.65625 452.085938 580.679688 452.128906 580.699219 452.175781 C 580.84375 452.566406 581.011719 452.949219 581.210938 453.324219 C 581.242188 453.386719 581.28125 453.441406 581.3125 453.5 C 581.492188 453.816406 581.695312 454.125 581.914062 454.421875 C 581.96875 454.496094 582.015625 454.570312 582.074219 454.644531 C 582.320312 454.953125 582.589844 455.253906 582.878906 455.539062 C 582.949219 455.605469 583.023438 455.667969 583.09375 455.734375 C 583.214844 455.84375 583.328125 455.957031 583.457031 456.0625 C 603.757812 472.714844 615.246094 486.242188 621.515625 496.417969 C 624.941406 501.988281 626.820312 506.511719 627.824219 510.082031 L 573.652344 478.804688 L 542.824219 532.199219 L 597.007812 563.476562 C 593.839844 564.273438 589.691406 564.851562 584.261719 564.875 C 572.292969 564.882812 554.191406 561.917969 528.027344 552.058594 C 527.957031 552.03125 527.882812 552.015625 527.808594 551.988281 C 527.664062 551.9375 527.519531 551.894531 527.371094 551.847656 C 527.230469 551.808594 527.089844 551.769531 526.945312 551.734375 C 526.796875 551.699219 526.648438 551.667969 526.496094 551.640625 C 526.347656 551.613281 526.199219 551.585938 526.050781 551.566406 C 525.910156 551.546875 525.769531 551.535156 525.625 551.519531 C 525.464844 551.507812 525.304688 551.496094 525.144531 551.488281 C 525.011719 551.484375 524.878906 551.484375 524.746094 551.484375 C 524.574219 551.484375 524.398438 551.492188 524.226562 551.503906 C 524.105469 551.507812 523.980469 551.523438 523.859375 551.535156 C 523.675781 551.554688 523.496094 551.578125 523.316406 551.609375 C 523.257812 551.617188 523.195312 551.621094 523.136719 551.632812 C 523.074219 551.644531 523.011719 551.664062 522.949219 551.679688 C 522.785156 551.714844 522.617188 551.753906 522.453125 551.796875 C 522.3125 551.835938 522.175781 551.875 522.042969 551.917969 C 521.90625 551.960938 521.769531 552.011719 521.636719 552.0625 C 521.480469 552.117188 521.332031 552.175781 521.179688 552.242188 C 521.070312 552.292969 520.960938 552.34375 520.847656 552.398438 C 520.6875 552.472656 520.53125 552.550781 520.378906 552.636719 C 520.277344 552.695312 520.175781 552.753906 520.078125 552.816406 C 519.929688 552.90625 519.78125 553 519.636719 553.097656 C 519.53125 553.171875 519.429688 553.25 519.328125 553.324219 C 519.199219 553.421875 519.074219 553.519531 518.953125 553.621094 C 518.839844 553.714844 518.730469 553.816406 518.621094 553.917969 C 518.519531 554.011719 518.417969 554.105469 518.320312 554.203125 C 518.207031 554.320312 518.097656 554.441406 517.988281 554.566406 C 517.902344 554.664062 517.820312 554.757812 517.738281 554.855469 C 517.632812 554.984375 517.535156 555.117188 517.4375 555.253906 C 517.359375 555.359375 517.285156 555.46875 517.210938 555.578125 C 517.125 555.707031 517.046875 555.839844 516.964844 555.976562 C 516.890625 556.105469 516.816406 556.234375 516.746094 556.367188 C 516.683594 556.488281 516.625 556.613281 516.5625 556.738281 C 516.488281 556.894531 516.421875 557.054688 516.355469 557.214844 C 516.332031 557.273438 516.304688 557.328125 516.28125 557.386719 C 516.257812 557.449219 516.246094 557.507812 516.222656 557.566406 C 516.164062 557.734375 516.109375 557.90625 516.058594 558.078125 C 516.027344 558.203125 515.992188 558.324219 515.960938 558.445312 C 515.925781 558.605469 515.890625 558.769531 515.859375 558.933594 C 515.832031 559.074219 515.808594 559.214844 515.789062 559.359375 C 515.769531 559.5 515.753906 559.640625 515.742188 559.785156 C 515.726562 559.953125 515.714844 560.117188 515.710938 560.28125 C 515.707031 560.402344 515.707031 560.523438 515.707031 560.640625 C 515.707031 560.832031 515.714844 561.023438 515.726562 561.214844 C 515.734375 561.3125 515.746094 561.414062 515.753906 561.515625 C 515.777344 561.726562 515.804688 561.933594 515.839844 562.140625 C 515.847656 562.1875 515.851562 562.230469 515.859375 562.277344 C 518.925781 578.621094 520.097656 591.734375 520.09375 602.160156 C 520.089844 617.195312 517.671875 626.511719 515.121094 632.179688 L 493.730469 573.402344 Z M 435.792969 594.480469 " fill-opacity="1" fill-rule="nonzero"/><path fill="#ffffff" d="M 674.027344 542.773438 C 674.753906 543.191406 675.460938 543.648438 676.140625 544.136719 C 676.824219 544.625 677.480469 545.148438 678.113281 545.699219 C 678.746094 546.253906 679.347656 546.835938 679.921875 547.449219 C 680.496094 548.0625 681.039062 548.703125 681.550781 549.371094 C 682.0625 550.035156 682.539062 550.726562 682.984375 551.4375 C 683.425781 552.152344 683.832031 552.886719 684.207031 553.640625 C 684.578125 554.390625 684.910156 555.160156 685.207031 555.949219 C 685.503906 556.734375 685.757812 557.53125 685.976562 558.34375 C 686.195312 559.15625 686.371094 559.976562 686.507812 560.804688 C 686.644531 561.632812 686.742188 562.464844 686.796875 563.304688 C 686.851562 564.140625 686.863281 564.980469 686.835938 565.820312 C 686.808594 566.660156 686.742188 567.496094 686.632812 568.328125 C 686.519531 569.160156 686.371094 569.988281 686.179688 570.804688 C 685.988281 571.621094 685.757812 572.429688 685.488281 573.222656 C 685.21875 574.019531 684.910156 574.800781 684.566406 575.566406 C 684.21875 576.328125 683.835938 577.074219 683.414062 577.804688 C 682.996094 578.53125 682.539062 579.234375 682.050781 579.917969 C 681.5625 580.601562 681.039062 581.257812 680.488281 581.890625 C 679.933594 582.519531 679.347656 583.125 678.738281 583.699219 C 678.125 584.273438 677.484375 584.816406 676.816406 585.324219 C 676.152344 585.835938 675.460938 586.316406 674.75 586.757812 C 674.035156 587.203125 673.300781 587.609375 672.546875 587.980469 C 671.796875 588.351562 671.023438 588.6875 670.238281 588.980469 C 669.453125 589.277344 668.65625 589.535156 667.84375 589.75 C 667.03125 589.96875 666.210938 590.144531 665.382812 590.28125 C 664.554688 590.417969 663.722656 590.515625 662.882812 590.570312 C 662.046875 590.625 661.207031 590.640625 660.367188 590.609375 C 659.527344 590.582031 658.691406 590.515625 657.859375 590.40625 C 657.027344 590.296875 656.199219 590.144531 655.382812 589.953125 C 654.5625 589.765625 653.757812 589.535156 652.960938 589.265625 C 652.167969 588.992188 651.386719 588.683594 650.621094 588.339844 C 649.855469 587.992188 649.109375 587.609375 648.382812 587.1875 C 647.65625 586.769531 646.949219 586.3125 646.269531 585.824219 C 645.585938 585.335938 644.929688 584.8125 644.296875 584.261719 C 643.664062 583.707031 643.0625 583.125 642.488281 582.511719 C 641.914062 581.898438 641.371094 581.257812 640.859375 580.589844 C 640.347656 579.925781 639.871094 579.234375 639.425781 578.523438 C 638.984375 577.808594 638.578125 577.074219 638.203125 576.320312 C 637.832031 575.570312 637.5 574.800781 637.203125 574.011719 C 636.90625 573.226562 636.652344 572.429688 636.433594 571.617188 C 636.214844 570.804688 636.039062 569.984375 635.902344 569.15625 C 635.765625 568.328125 635.667969 567.496094 635.613281 566.65625 C 635.558594 565.820312 635.546875 564.980469 635.574219 564.140625 C 635.601562 563.300781 635.667969 562.464844 635.777344 561.632812 C 635.890625 560.800781 636.039062 559.976562 636.230469 559.15625 C 636.421875 558.339844 636.652344 557.53125 636.921875 556.738281 C 637.191406 555.941406 637.5 555.160156 637.84375 554.394531 C 638.191406 553.632812 638.574219 552.886719 638.996094 552.15625 C 639.414062 551.429688 639.871094 550.726562 640.359375 550.042969 C 640.847656 549.359375 641.371094 548.703125 641.921875 548.070312 C 642.476562 547.441406 643.0625 546.835938 643.671875 546.261719 C 644.285156 545.6875 644.925781 545.144531 645.59375 544.636719 C 646.257812 544.125 646.949219 543.644531 647.664062 543.203125 C 648.375 542.757812 649.109375 542.351562 649.863281 541.980469 C 650.617188 541.609375 651.386719 541.273438 652.171875 540.980469 C 652.957031 540.683594 653.753906 540.425781 654.566406 540.210938 C 655.378906 539.992188 656.199219 539.816406 657.027344 539.679688 C 657.855469 539.542969 658.6875 539.445312 659.527344 539.390625 C 660.367188 539.335938 661.203125 539.324219 662.042969 539.351562 C 662.882812 539.378906 663.71875 539.445312 664.550781 539.554688 C 665.382812 539.664062 666.210938 539.816406 667.027344 540.007812 C 667.847656 540.195312 668.652344 540.425781 669.449219 540.695312 C 670.242188 540.96875 671.023438 541.277344 671.789062 541.621094 C 672.554688 541.96875 673.300781 542.351562 674.027344 542.773438 Z M 674.027344 542.773438 " fill-opacity="1" fill-rule="nonzero"/><path fill="#ffffff" d="M 529.519531 686.902344 C 529.808594 687.691406 530.054688 688.492188 530.265625 689.304688 C 530.472656 690.121094 530.640625 690.941406 530.769531 691.773438 C 530.894531 692.601562 530.984375 693.4375 531.027344 694.273438 C 531.074219 695.113281 531.078125 695.953125 531.042969 696.792969 C 531.003906 697.632812 530.929688 698.464844 530.808594 699.296875 C 530.691406 700.128906 530.53125 700.953125 530.332031 701.769531 C 530.132812 702.585938 529.894531 703.390625 529.613281 704.179688 C 529.335938 704.972656 529.019531 705.75 528.664062 706.511719 C 528.308594 707.273438 527.917969 708.015625 527.488281 708.738281 C 527.0625 709.460938 526.601562 710.160156 526.101562 710.835938 C 525.605469 711.515625 525.078125 712.167969 524.515625 712.792969 C 523.957031 713.417969 523.367188 714.011719 522.746094 714.582031 C 522.128906 715.148438 521.484375 715.683594 520.8125 716.1875 C 520.140625 716.691406 519.445312 717.160156 518.726562 717.597656 C 518.007812 718.03125 517.269531 718.433594 516.511719 718.796875 C 515.753906 719.160156 514.984375 719.484375 514.195312 719.769531 C 513.402344 720.058594 512.601562 720.304688 511.789062 720.515625 C 510.976562 720.722656 510.152344 720.890625 509.324219 721.019531 C 508.492188 721.148438 507.660156 721.234375 506.820312 721.28125 C 505.980469 721.324219 505.144531 721.328125 504.304688 721.292969 C 503.464844 721.257812 502.628906 721.179688 501.796875 721.058594 C 500.964844 720.941406 500.144531 720.78125 499.328125 720.582031 C 498.511719 720.382812 497.707031 720.144531 496.914062 719.863281 C 496.121094 719.585938 495.347656 719.269531 494.585938 718.914062 C 493.824219 718.558594 493.082031 718.167969 492.359375 717.738281 C 491.636719 717.3125 490.9375 716.851562 490.257812 716.351562 C 489.582031 715.855469 488.929688 715.328125 488.304688 714.765625 C 487.679688 714.207031 487.082031 713.617188 486.515625 712.996094 C 485.949219 712.378906 485.414062 711.734375 484.910156 711.0625 C 484.40625 710.390625 483.933594 709.695312 483.5 708.976562 C 483.0625 708.257812 482.664062 707.519531 482.300781 706.761719 C 481.9375 706.003906 481.613281 705.230469 481.324219 704.441406 C 481.039062 703.652344 480.789062 702.851562 480.582031 702.039062 C 480.371094 701.226562 480.203125 700.402344 480.078125 699.574219 C 479.949219 698.742188 479.863281 697.90625 479.816406 697.070312 C 479.769531 696.230469 479.765625 695.390625 479.800781 694.554688 C 479.839844 693.714844 479.917969 692.878906 480.035156 692.046875 C 480.15625 691.214844 480.3125 690.390625 480.511719 689.574219 C 480.710938 688.761719 480.953125 687.957031 481.230469 687.164062 C 481.507812 686.371094 481.824219 685.59375 482.179688 684.832031 C 482.535156 684.070312 482.925781 683.332031 483.355469 682.605469 C 483.78125 681.882812 484.246094 681.183594 484.742188 680.507812 C 485.238281 679.828125 485.765625 679.179688 486.328125 678.554688 C 486.886719 677.925781 487.476562 677.332031 488.097656 676.765625 C 488.714844 676.195312 489.363281 675.660156 490.035156 675.15625 C 490.707031 674.652344 491.402344 674.183594 492.117188 673.746094 C 492.835938 673.3125 493.574219 672.914062 494.332031 672.550781 C 495.089844 672.1875 495.863281 671.859375 496.652344 671.574219 C 497.441406 671.285156 498.242188 671.039062 499.054688 670.828125 C 499.871094 670.621094 500.691406 670.453125 501.519531 670.324219 C 502.351562 670.199219 503.1875 670.109375 504.023438 670.066406 C 504.863281 670.019531 505.703125 670.015625 506.539062 670.050781 C 507.378906 670.089844 508.214844 670.164062 509.046875 670.285156 C 509.878906 670.402344 510.703125 670.5625 511.519531 670.761719 C 512.332031 670.960938 513.136719 671.199219 513.929688 671.480469 C 514.722656 671.757812 515.5 672.074219 516.261719 672.429688 C 517.019531 672.785156 517.761719 673.175781 518.484375 673.605469 C 519.207031 674.03125 519.910156 674.496094 520.585938 674.992188 C 521.261719 675.488281 521.914062 676.015625 522.539062 676.578125 C 523.164062 677.136719 523.761719 677.726562 524.328125 678.347656 C 524.898438 678.964844 525.433594 679.613281 525.9375 680.285156 C 526.441406 680.957031 526.910156 681.652344 527.347656 682.367188 C 527.78125 683.085938 528.179688 683.824219 528.542969 684.582031 C 528.90625 685.339844 529.234375 686.113281 529.519531 686.902344 Z M 529.519531 686.902344 " fill-opacity="1" fill-rule="nonzero"/></svg>