<svg xmlns="http://www.w3.org/2000/svg" xmlns:xlink="http://www.w3.org/1999/xlink" width="1080" zoomAndPan="magnify" viewBox="0 0 810 809.999993" height="1080" preserveAspectRatio="xMidYMid meet" version="1.0"><defs><clipPath id="187495da7f"><path d="M 81 232.46875 L 729 232.46875 L 729 577.46875 L 81 577.46875 Z M 81 232.46875 " clip-rule="nonzero"/></clipPath></defs><g clip-path="url(#187495da7f)"><path fill="#ffffff" d="M 254.035156 232.46875 C 159.367188 232.46875 81.507812 310.011719 81.507812 405 C 81.507812 499.902344 159.132812 577.527344 254.035156 577.527344 C 311.101562 577.527344 349.367188 550.46875 378.632812 513.546875 C 365.046875 492.628906 353.601562 470.933594 343.292969 450.617188 C 318.664062 489.976562 293.460938 512.832031 254.035156 512.832031 C 194.09375 512.832031 146.207031 464.941406 146.207031 405 C 146.207031 345.140625 194.464844 297.167969 254.035156 297.167969 C 284.800781 297.167969 302.941406 308.398438 322.105469 330.066406 C 341.269531 351.734375 358.308594 384.480469 375.9375 419.53125 C 393.5625 454.582031 411.800781 491.953125 439.203125 522.855469 C 466.601562 553.757812 506.292969 577.527344 555.964844 577.527344 C 650.050781 577.527344 728.492188 500.199219 728.492188 405 C 728.492188 310.09375 650.867188 232.46875 555.964844 232.46875 C 498.8125 232.46875 460.570312 259.757812 431.324219 296.914062 C 444.890625 317.898438 456.316406 339.632812 466.625 359.972656 C 491.339844 320.226562 516.539062 297.167969 555.964844 297.167969 C 615.90625 297.167969 663.792969 345.058594 663.792969 405 C 663.792969 464.644531 614.605469 512.832031 555.964844 512.832031 C 525.050781 512.832031 506.8125 501.558594 487.601562 479.890625 C 468.386719 458.226562 451.347656 425.507812 433.726562 390.46875 C 416.105469 355.429688 397.917969 318.085938 370.585938 287.1875 C 343.257812 256.285156 303.617188 232.46875 254.035156 232.46875 Z M 254.035156 232.46875 " fill-opacity="1" fill-rule="nonzero"/></g></svg>