<svg xmlns="http://www.w3.org/2000/svg" xmlns:xlink="http://www.w3.org/1999/xlink" width="1080" zoomAndPan="magnify" viewBox="0 0 810 809.999993" height="1080" preserveAspectRatio="xMidYMid meet" version="1.0"><defs><clipPath id="861ee4ee02"><path d="M 86 100.304688 L 726 100.304688 L 726 709 L 86 709 Z M 86 100.304688 " clip-rule="nonzero"/></clipPath></defs><rect x="-81" width="972" fill="#ffffff" y="-80.999999" height="971.999992" fill-opacity="1"/><rect x="-81" width="972" fill="#18422f" y="-80.999999" height="971.999992" fill-opacity="1"/><g clip-path="url(#861ee4ee02)"><path fill="#ffffff" d="M 371.285156 666.734375 L 199.648438 666.734375 L 199.648438 430.882812 C 206.257812 433.019531 212.964844 434.574219 219.707031 435.5625 L 219.707031 641.664062 L 346.207031 641.664062 Z M 510.84375 666.734375 L 652.921875 666.734375 L 652.921875 524.632812 L 632.863281 544.691406 L 632.863281 641.664062 L 535.910156 641.664062 Z M 652.921875 385.707031 L 652.921875 100.144531 L 199.648438 100.144531 L 199.648438 194.402344 C 206.191406 192.289062 212.902344 190.71875 219.707031 189.710938 L 219.707031 125.21875 L 632.863281 125.21875 L 632.863281 405.769531 Z M 544.535156 494.105469 L 284 494.105469 C 275.136719 494.105469 268.191406 487.160156 268.191406 478.296875 C 268.191406 469.4375 275.136719 462.488281 284 462.488281 L 568.574219 462.488281 C 570.828125 462.488281 572.960938 462.9375 574.882812 463.753906 Z M 324.734375 557.34375 L 284 557.34375 C 275.136719 557.34375 268.191406 550.398438 268.191406 541.535156 C 268.191406 532.675781 275.136719 525.726562 284 525.726562 L 512.917969 525.726562 L 481.304688 557.34375 L 400.824219 557.34375 L 381.019531 537.550781 C 370.964844 527.496094 354.542969 527.496094 344.507812 537.558594 Z M 339.527344 241.152344 L 568.574219 241.152344 C 577.433594 241.152344 584.382812 234.207031 584.382812 225.34375 C 584.382812 216.484375 577.433594 209.535156 568.574219 209.535156 L 307.261719 209.535156 C 320.1875 218.21875 331.007812 228.996094 339.527344 241.152344 Z M 361.828125 304.390625 L 568.574219 304.390625 C 577.433594 304.390625 584.382812 297.445312 584.382812 288.582031 C 584.382812 279.722656 577.433594 272.773438 568.574219 272.773438 L 355.523438 272.773438 C 358.972656 282.976562 361.097656 293.613281 361.828125 304.390625 Z M 349.28125 367.628906 L 568.574219 367.628906 C 577.433594 367.628906 584.382812 360.683594 584.382812 351.820312 C 584.382812 342.960938 577.433594 336.011719 568.574219 336.011719 L 359.917969 336.011719 C 357.863281 346.777344 354.339844 357.410156 349.28125 367.628906 Z M 326.957031 399.25 L 568.574219 399.25 C 577.433594 399.25 584.382812 406.199219 584.382812 415.058594 C 584.382812 423.921875 577.433594 430.867188 568.574219 430.867188 L 284 430.867188 C 282.097656 430.867188 280.285156 430.550781 278.609375 429.960938 C 296.625 423.714844 313.265625 413.335938 326.957031 399.25 Z M 144.164062 258.113281 C 174.296875 205.941406 241.269531 187.996094 293.457031 218.128906 C 345.648438 248.269531 363.574219 315.234375 333.453125 367.402344 C 307.511719 412.335938 254.222656 431.882812 206.589844 417.160156 L 132.199219 546.015625 C 125.5 557.597656 110.621094 561.613281 98.988281 554.914062 C 87.371094 548.203125 83.410156 533.296875 90.085938 521.703125 L 164.484375 392.863281 C 127.941406 358.984375 118.207031 303.070312 144.164062 258.113281 Z M 202.992188 378.777344 C 237.234375 398.546875 281.136719 386.78125 300.90625 352.539062 C 320.679688 318.316406 308.914062 274.398438 274.675781 254.648438 C 240.453125 234.867188 196.53125 246.636719 176.777344 280.859375 C 156.984375 315.085938 168.769531 359 202.992188 378.777344 Z M 723.015625 418 C 726.480469 421.46875 726.480469 427.210938 723.011719 430.679688 L 447.402344 706.335938 C 443.941406 709.804688 438.214844 709.804688 434.742188 706.332031 L 323.492188 595.105469 C 320.023438 591.648438 320.023438 585.914062 323.492188 582.449219 L 356.441406 549.472656 C 359.898438 546.007812 365.628906 546.007812 369.097656 549.476562 L 422.820312 603.175781 C 432.847656 613.238281 449.265625 613.238281 459.328125 603.175781 L 677.40625 385.070312 C 680.863281 381.605469 686.59375 381.605469 690.066406 385.074219 Z M 723.015625 418 " fill-opacity="1" fill-rule="evenodd"/></g></svg>